<?xml version="1.0" encoding="iso-8859-1"?>
<!-- Generator: Adobe Illustrator 26.0.1, SVG Export Plug-In . SVG Version: 6.00 Build 0)  -->
<svg version="1.1" id="Layer_1" xmlns="http://www.w3.org/2000/svg" xmlns:xlink="http://www.w3.org/1999/xlink" x="0px" y="0px"
	 viewBox="0 0 1000 1000" style="enable-background:new 0 0 1000 1000;" xml:space="preserve">
<g id="watermark_1_">
	<g>
		<g id="watermark" style="opacity:0.61;">
			<g>
				<g>
					<g>
						<g>
							<polygon style="fill:#FFFFFF;" points="421.112,924.528 409.007,952.493 402.615,952.493 390.55,924.528 397.541,924.528 
								406.051,944.503 414.68,924.528 							"/>
						</g>
						<g>
							<path style="fill:#FFFFFF;" d="M442.323,943.185h-16.26c0.599,2.677,2.876,4.315,6.153,4.315
								c2.277,0,3.915-0.679,5.393-2.077l3.316,3.595c-1.997,2.278-4.994,3.476-8.868,3.476c-7.431,0-12.265-4.674-12.265-11.067
								c0-6.432,4.914-11.066,11.466-11.066c6.312,0,11.186,4.235,11.186,11.146C442.443,941.987,442.363,942.666,442.323,943.185
								 M425.983,939.55h10.587c-0.44-2.717-2.478-4.475-5.274-4.475C428.46,935.075,426.422,936.793,425.983,939.55"/>
						</g>
						<g>
							<path style="fill:#FFFFFF;" d="M444.997,941.427c0-6.471,4.994-11.066,11.985-11.066c4.514,0,8.07,1.958,9.628,5.473
								l-4.834,2.597c-1.159-2.038-2.877-2.956-4.834-2.956c-3.156,0-5.633,2.198-5.633,5.952c0,3.756,2.477,5.953,5.633,5.953
								c1.958,0,3.675-0.879,4.834-2.956l4.834,2.637c-1.558,3.436-5.114,5.433-9.628,5.433
								C449.991,952.493,444.997,947.899,444.997,941.427"/>
						</g>
						<g>
							<path style="fill:#FFFFFF;" d="M484.386,951.135c-1.279,0.919-3.157,1.358-5.074,1.358c-5.073,0-8.03-2.597-8.03-7.711
								v-8.829h-3.316v-4.794h3.316v-5.233h6.232v5.233h5.353v4.794h-5.353v8.749c0,1.837,0.998,2.836,2.677,2.836
								c0.918,0,1.837-0.279,2.517-0.799L484.386,951.135z"/>
						</g>
					</g>
					<g>
						<path style="fill:#FFFFFF;" d="M527.157,930.68v5.753c-0.519-0.04-0.918-0.08-1.398-0.08c-3.435,0-5.713,1.877-5.713,5.993
							v10.147h-6.232V931h5.953v2.836C521.284,931.759,523.841,930.68,527.157,930.68"/>
					</g>
					<g>
						<path style="fill:#FFFFFF;" d="M528.954,949.257l2.197-4.874c2.357,1.718,5.873,2.916,9.229,2.916
							c3.836,0,5.393-1.278,5.393-2.996c0-5.233-16.26-1.638-16.26-12.025c0-4.754,3.835-8.709,11.785-8.709
							c3.516,0,7.112,0.839,9.708,2.477l-1.998,4.914c-2.597-1.478-5.273-2.197-7.75-2.197c-3.835,0-5.313,1.438-5.313,3.196
							c0,5.154,16.259,1.598,16.259,11.865c0,4.675-3.875,8.67-11.865,8.67C535.905,952.493,531.43,951.175,528.954,949.257"/>
					</g>
					<g>
						<path style="fill:#FFFFFF;" d="M577.131,943.185h-16.26c0.599,2.677,2.876,4.315,6.153,4.315c2.277,0,3.915-0.679,5.393-2.077
							l3.316,3.595c-1.998,2.278-4.994,3.476-8.869,3.476c-7.431,0-12.265-4.674-12.265-11.067c0-6.432,4.914-11.066,11.466-11.066
							c6.312,0,11.187,4.235,11.187,11.146C577.251,941.987,577.171,942.666,577.131,943.185 M560.791,939.55h10.587
							c-0.439-2.717-2.477-4.475-5.273-4.475C563.268,935.075,561.231,936.793,560.791,939.55"/>
					</g>
					<g>
						<path style="fill:#FFFFFF;" d="M602.337,943.185h-16.26c0.599,2.677,2.876,4.315,6.152,4.315c2.277,0,3.915-0.679,5.393-2.077
							l3.316,3.595c-1.998,2.278-4.994,3.476-8.869,3.476c-7.431,0-12.265-4.674-12.265-11.067c0-6.432,4.914-11.066,11.466-11.066
							c6.312,0,11.186,4.235,11.186,11.146C602.457,941.987,602.377,942.666,602.337,943.185 M585.997,939.55h10.587
							c-0.439-2.717-2.477-4.475-5.273-4.475C588.474,935.075,586.437,936.793,585.997,939.55"/>
					</g>
					<g>
						<polygon style="fill:#FFFFFF;" points="615.838,944.064 612.841,947.02 612.841,952.493 606.61,952.493 606.61,922.85 
							612.841,922.85 612.841,939.629 621.95,931 629.381,931 620.432,940.108 630.18,952.493 622.63,952.493 						"/>
					</g>
					<g>
						<path style="fill:#FFFFFF;" d="M514.371,955.416L514.371,955.416l-6.226-6.226c-0.947,1.107-2.075,2.054-3.339,2.796
							c-0.201,0.15-0.406,0.296-0.616,0.433l6.589,6.589c0.992,0.992,2.601,0.992,3.592,0
							C515.363,958.017,515.363,956.408,514.371,955.416"/>
					</g>
					<g>
						<path style="fill:#FFFFFF;" d="M499.965,929.04c0.48-0.377,1.077-0.612,1.735-0.612c0.091,0,0.181,0.005,0.27,0.013
							c-0.466-0.34-1.041-0.542-1.663-0.542c-0.859,0-1.619,0.392-2.137,0.998c-0.111,0-0.218,0.013-0.328,0.016
							c0.086-0.167,0.139-0.354,0.139-0.555c0-0.509-0.311-0.945-0.752-1.13c0.19,0.275,0.301,0.608,0.301,0.968
							c0,0.267-0.066,0.517-0.176,0.742c-6.119,0.437-10.95,5.527-10.95,11.757c0,6.516,5.283,11.799,11.799,11.799
							c6.517,0,11.8-5.283,11.8-11.799C510.004,934.777,505.644,929.892,499.965,929.04 M495.61,932.114
							c0.947,0,1.837,0.244,2.611,0.674c0.813-0.532,1.785-0.842,2.828-0.842c1.547,0,2.934,0.68,3.883,1.756
							c-0.948-0.826-2.186-1.328-3.541-1.328c-0.977,0-1.895,0.261-2.686,0.716c-0.172,0.1-0.34,0.208-0.499,0.326
							c-0.142-0.104-0.29-0.203-0.444-0.292c-0.803-0.476-1.741-0.749-2.743-0.749c-0.653,0-1.279,0.117-1.86,0.331
							C493.895,932.328,494.727,932.114,495.61,932.114 M503.858,941.785c0.25,0.664,0.394,1.38,0.394,2.131
							c0,3.34-2.707,6.047-6.047,6.047c-3.339,0-6.047-2.707-6.047-6.047c0-0.751,0.143-1.467,0.394-2.131
							c-1.35-0.831-2.253-2.317-2.253-4.019c0-2.607,2.114-4.72,4.72-4.72c1.23,0,2.346,0.474,3.186,1.244
							c0.84-0.77,1.956-1.244,3.186-1.244c2.607,0,4.72,2.113,4.72,4.72C506.111,939.467,505.208,940.954,503.858,941.785"/>
					</g>
					<g>
						<path style="fill:#FFFFFF;" d="M503.627,937.351c0,1.082-0.879,1.961-1.961,1.961c-1.082,0-1.961-0.879-1.961-1.961
							s0.879-1.961,1.961-1.961c0.22,0,0.428,0.037,0.625,0.102c-0.065,0.135-0.099,0.287-0.099,0.445
							c0,0.595,0.482,1.076,1.077,1.076c0.11,0,0.217-0.017,0.318-0.048C503.613,937.089,503.627,937.218,503.627,937.351"/>
					</g>
					<g>
						<path style="fill:#FFFFFF;" d="M496.201,937.351c0,0.818-0.665,1.482-1.483,1.482c-0.818,0-1.483-0.664-1.483-1.482
							s0.665-1.483,1.483-1.483c0.166,0,0.324,0.027,0.473,0.077c-0.049,0.102-0.075,0.217-0.075,0.337
							c0,0.449,0.364,0.814,0.814,0.814c0.083,0,0.164-0.013,0.241-0.036C496.191,937.153,496.201,937.251,496.201,937.351"/>
					</g>
					<g>
						<g>
							<g>
								<rect x="484.56" y="939.024" style="fill:#FFFFFF;" width="1.34" height="1.34"/>
							</g>
							<g>
								<rect x="510.51" y="939.024" style="fill:#FFFFFF;" width="1.34" height="1.34"/>
							</g>
							<g>
								<path style="fill:#FFFFFF;" d="M511.332,939.572h-0.304c0-7.07-5.752-12.823-12.823-12.823
									c-7.07,0-12.823,5.753-12.823,12.823h-0.305c0-3.506,1.365-6.803,3.845-9.282c2.479-2.48,5.776-3.845,9.282-3.845
									c3.507,0,6.803,1.365,9.283,3.845C509.966,932.769,511.332,936.065,511.332,939.572"/>
							</g>
						</g>
						<g>
							<rect x="497.534" y="925.927" style="fill:#FFFFFF;" width="1.34" height="1.34"/>
						</g>
						<g>
							<rect x="489.006" y="926.445" style="fill:#FFFFFF;" width="18.397" height="0.304"/>
						</g>
						<g>
							<path style="fill:#FFFFFF;" d="M489.494,926.658c0,0.235-0.191,0.427-0.427,0.427c-0.235,0-0.426-0.191-0.426-0.427
								s0.191-0.427,0.426-0.427C489.303,926.231,489.494,926.422,489.494,926.658"/>
						</g>
						<g>
							<path style="fill:#FFFFFF;" d="M507.829,926.658c0,0.235-0.191,0.427-0.427,0.427c-0.235,0-0.426-0.191-0.426-0.427
								s0.191-0.427,0.426-0.427C507.639,926.231,507.829,926.422,507.829,926.658"/>
						</g>
					</g>
				</g>
				<g>
					<path style="fill:#FFFFFF;" d="M640.109,951.171c0,3.395-5.146,3.395-5.146,0C634.963,947.779,640.109,947.779,640.109,951.171
						z"/>
				</g>
				<g>
					<g>
						<g>
							<path style="fill:#FFFFFF;" d="M307.849,936.236l3.859,13.253l4.038-13.253h4.823l-6.145,17.721h-5.073l-1.822-5.216
								l-1.572-5.896l-1.571,5.896l-1.822,5.216h-5.073l-6.18-17.721h4.858l4.038,13.253l3.822-13.253H307.849z"/>
						</g>
						<g>
							<path style="fill:#FFFFFF;" d="M340.449,936.236l3.859,13.253l4.038-13.253h4.823l-6.145,17.721h-5.073l-1.822-5.216
								l-1.571-5.896l-1.572,5.896l-1.822,5.216h-5.073l-6.18-17.721h4.858l4.038,13.253l3.822-13.253H340.449z"/>
						</g>
						<g>
							<path style="fill:#FFFFFF;" d="M373.048,936.236l3.859,13.253l4.038-13.253h4.823l-6.145,17.721h-5.073l-1.822-5.216
								l-1.572-5.896l-1.571,5.896l-1.822,5.216h-5.073l-6.18-17.721h4.858l4.038,13.253l3.822-13.253H373.048z"/>
						</g>
					</g>
					<g>
						<path style="fill:#FFFFFF;" d="M393.123,951.412c0,3.395-5.146,3.395-5.146,0C387.977,948.02,393.123,948.02,393.123,951.412z
							"/>
					</g>
					<g>
						<path style="fill:#FFFFFF;" d="M658.296,951.171c-2.036,2.001-4.177,2.787-6.787,2.787c-5.108,0-9.361-3.072-9.361-9.323
							c0-6.251,4.253-9.326,9.361-9.326c2.502,0,4.43,0.716,6.359,2.609l-2.752,2.894c-1.036-0.931-2.321-1.393-3.534-1.393
							c-2.929,0-5.073,2.144-5.073,5.216c0,3.357,2.286,5.143,5,5.143c1.393,0,2.787-0.393,3.857-1.463L658.296,951.171z"/>
					</g>
					<g>
						<path style="fill:#FFFFFF;" d="M678.097,944.777c0,5.073-3.465,9.181-9.181,9.181c-5.716,0-9.146-4.107-9.146-9.181
							c0-5.038,3.502-9.181,9.111-9.181S678.097,939.739,678.097,944.777z M664.128,944.777c0,2.679,1.609,5.181,4.788,5.181
							c3.179,0,4.788-2.502,4.788-5.181c0-2.644-1.859-5.216-4.788-5.216C665.772,939.561,664.128,942.133,664.128,944.777z"/>
					</g>
					<g>
						<path style="fill:#FFFFFF;" d="M692.828,953.958v-9.431c0-2.324-1.216-4.43-3.61-4.43c-2.356,0-3.75,2.106-3.75,4.43v9.431
							h-4.36v-17.649h4.038l0.323,2.144c0.928-1.786,2.964-2.429,4.643-2.429c2.109,0,4.218,0.858,5.216,3.287
							c1.574-2.502,3.61-3.217,5.896-3.217c5,0,7.467,3.075,7.467,8.36v9.504h-4.361v-9.504c0-2.321-0.963-4.288-3.322-4.288
							c-2.356,0-3.822,2.036-3.822,4.36v9.431H692.828z"/>
					</g>
				</g>
			</g>
		</g>
		<g style="opacity:0.61;">
			<g>
				<g>
					<path style="fill:#FFFFFF;" d="M708.973,859.493c-0.013-2.665-2.087-4.618-4.766-4.659c-2.011-0.031-1.81,0.261-1.815-1.887
						c-0.006-2.389-0.015-4.778,0.006-7.166c0.007-0.824-0.243-1.505-0.787-2.125c-5.098-5.81-10.184-11.63-15.281-17.441
						c-0.262-0.299-0.599-0.532-0.901-0.796c-13.528,0-27.055,0-40.583,0c-1.729,0.639-2.482,1.889-2.478,3.72
						c0.021,8.159,0.009,16.318,0.008,24.478c0,1.21-0.007,1.281-1.197,1.201c-3.258-0.221-5.477,2.147-5.436,5.426
						c0.096,7.568,0.028,15.137,0.031,22.706c0.001,3.44,1.887,5.32,5.333,5.331c1.267,0.004,1.268,0.004,1.268,1.306
						c0.001,4.831-0.002,9.662,0.002,14.493c0.002,2.595,1.262,3.855,3.85,3.855c17.446,0.001,34.891,0.001,52.337,0
						c2.543,0,3.822-1.268,3.824-3.799c0.005-4.912,0.001-9.823,0.003-14.735c0-1.115,0.005-1.112,1.131-1.121
						c0.589-0.005,1.177,0.017,1.761-0.127c2.169-0.535,3.68-2.273,3.689-4.503C709.007,875.597,709.011,867.545,708.973,859.493z
						 M647.034,828.716c11.619-0.001,23.237-0.001,34.856,0c1.193,0,1.206,0.015,1.207,1.222c0.001,4.884-0.002,9.767,0.002,14.651
						c0.001,1.765,0.543,2.305,2.307,2.306c4.159,0.003,8.318,0,12.477,0.003c0.997,0.001,1.044,0.046,1.046,1.052
						c0.006,1.932,0.005,3.864,0,5.796c-0.003,1.038-0.051,1.085-1.098,1.085c-8.479,0.002-16.958,0.001-25.438,0.001
						c-8.452,0-16.905,0-25.357,0c-1.198,0-1.202-0.003-1.202-1.221c-0.001-7.889-0.001-15.778,0-23.667
						C645.835,828.724,645.844,828.716,647.034,828.716z M697.728,903.645c-8.454,0.001-16.908,0.001-25.362,0.001
						c-8.427,0-16.854,0.001-25.281,0c-1.245,0-1.249-0.003-1.249-1.262c-0.001-4.348-0.003-8.696,0.001-13.043
						c0.001-1.01,0.051-1.059,1.041-1.059c16.989-0.002,33.977-0.002,50.966,0c1.041,0,1.086,0.044,1.087,1.094
						c0.003,4.348,0.003,8.696,0.001,13.043C698.931,903.634,698.92,903.645,697.728,903.645z"/>
				</g>
				<g>
					<g>
						<rect x="668.546" y="828.478" style="fill:#FFFFFF;" width="3.825" height="2.295"/>
					</g>
					<g>
						<rect x="664.722" y="830.773" style="fill:#FFFFFF;" width="3.825" height="2.295"/>
					</g>
					<g>
						<rect x="668.546" y="833.068" style="fill:#FFFFFF;" width="3.825" height="2.295"/>
					</g>
					<g>
						<rect x="664.722" y="835.363" style="fill:#FFFFFF;" width="3.825" height="2.295"/>
					</g>
					<g>
						<rect x="668.546" y="837.658" style="fill:#FFFFFF;" width="3.825" height="2.295"/>
					</g>
					<g>
						<rect x="664.722" y="839.953" style="fill:#FFFFFF;" width="3.825" height="2.295"/>
					</g>
					<g>
						<rect x="668.546" y="842.247" style="fill:#FFFFFF;" width="3.825" height="2.295"/>
					</g>
					<g>
						<rect x="664.722" y="844.542" style="fill:#FFFFFF;" width="3.825" height="2.295"/>
					</g>
					<g>
						<rect x="668.546" y="846.837" style="fill:#FFFFFF;" width="3.825" height="2.295"/>
					</g>
					<g>
						<rect x="664.722" y="849.132" style="fill:#FFFFFF;" width="3.825" height="2.295"/>
					</g>
					<g>
						<rect x="668.546" y="851.427" style="fill:#FFFFFF;" width="3.825" height="2.295"/>
					</g>
					<g>
						<rect x="664.722" y="853.722" style="fill:#FFFFFF;" width="3.825" height="2.295"/>
					</g>
				</g>
			</g>
			<g>
				<path style="fill:#FFFFFF;" d="M364.231,859.493c-0.013-2.665-2.087-4.618-4.766-4.659c-2.011-0.031-1.81,0.261-1.815-1.887
					c-0.006-2.389-0.015-4.778,0.006-7.166c0.007-0.824-0.243-1.505-0.787-2.125c-5.098-5.81-10.184-11.63-15.281-17.441
					c-0.262-0.299-0.599-0.532-0.901-0.796c-13.528,0-27.055,0-40.583,0c-1.729,0.639-2.482,1.889-2.478,3.72
					c0.021,8.159,0.009,16.318,0.008,24.478c0,1.21-0.007,1.281-1.197,1.201c-3.258-0.221-5.477,2.147-5.436,5.426
					c0.096,7.568,0.028,15.137,0.031,22.706c0.001,3.44,1.887,5.32,5.333,5.331c1.267,0.004,1.268,0.004,1.268,1.306
					c0.001,4.831-0.002,9.662,0.002,14.493c0.002,2.595,1.262,3.855,3.85,3.855c17.446,0.001,34.891,0.001,52.337,0
					c2.543,0,3.822-1.268,3.824-3.799c0.005-4.912,0.001-9.823,0.003-14.735c0-1.115,0.004-1.112,1.131-1.121
					c0.589-0.005,1.177,0.017,1.761-0.127c2.169-0.535,3.68-2.273,3.689-4.503C364.264,875.597,364.269,867.545,364.231,859.493z
					 M302.292,828.716c11.619-0.001,23.237-0.001,34.856,0c1.192,0,1.206,0.015,1.207,1.222c0.001,4.884-0.001,9.767,0.002,14.651
					c0.001,1.765,0.543,2.305,2.307,2.306c4.159,0.003,8.318,0,12.477,0.003c0.997,0.001,1.044,0.046,1.046,1.052
					c0.006,1.932,0.005,3.864,0,5.796c-0.003,1.038-0.051,1.085-1.098,1.085c-8.479,0.002-16.958,0.001-25.438,0.001
					c-8.452,0-16.905,0-25.357,0c-1.198,0-1.202-0.003-1.202-1.221c-0.001-7.889-0.001-15.778,0-23.667
					C301.093,828.724,301.102,828.716,302.292,828.716z M352.985,903.645c-8.454,0.001-16.908,0.001-25.362,0.001
					c-8.427,0-16.854,0.001-25.281,0c-1.245,0-1.249-0.003-1.249-1.262c-0.001-4.348-0.003-8.696,0.001-13.043
					c0.001-1.01,0.051-1.059,1.041-1.059c16.989-0.002,33.977-0.002,50.966,0c1.041,0,1.086,0.044,1.087,1.094
					c0.003,4.348,0.003,8.696,0.001,13.043C354.188,903.634,354.177,903.645,352.985,903.645z"/>
			</g>
			<g>
				<path style="fill:#FFFFFF;" d="M303.581,879.891v-17.193h6.051c0.816,0,1.581,0.132,2.293,0.396
					c0.712,0.264,1.333,0.636,1.861,1.117c0.527,0.48,0.944,1.053,1.248,1.717c0.304,0.665,0.456,1.397,0.456,2.198
					c0,0.816-0.152,1.557-0.456,2.221s-0.721,1.236-1.248,1.717c-0.529,0.48-1.149,0.852-1.861,1.117
					c-0.713,0.264-1.477,0.396-2.293,0.396h-2.809v6.315H303.581z M309.68,870.503c0.848,0,1.489-0.241,1.921-0.721
					c0.432-0.48,0.648-1.032,0.648-1.656c0-0.304-0.052-0.601-0.156-0.889c-0.105-0.288-0.264-0.54-0.48-0.756
					c-0.216-0.217-0.484-0.388-0.805-0.516c-0.32-0.129-0.696-0.193-1.128-0.193h-2.857v4.731H309.68z"/>
				<path style="fill:#FFFFFF;" d="M317.796,862.699h3.77l6.916,11.526h0.191l-0.191-3.314v-8.212h3.217v17.193h-3.409l-7.3-12.174
					h-0.191l0.191,3.314v8.86h-3.193V862.699z"/>
				<path style="fill:#FFFFFF;" d="M343.08,870.454h8.429c0.048,0.193,0.087,0.425,0.12,0.697c0.031,0.272,0.048,0.544,0.048,0.816
					c0,1.104-0.167,2.145-0.504,3.121c-0.336,0.977-0.865,1.849-1.585,2.618c-0.768,0.817-1.69,1.449-2.761,1.897
					c-1.073,0.448-2.298,0.672-3.674,0.672c-1.249,0-2.426-0.224-3.53-0.672c-1.104-0.447-2.065-1.072-2.881-1.873
					c-0.816-0.8-1.465-1.749-1.945-2.845c-0.48-1.097-0.72-2.293-0.72-3.59c0-1.296,0.24-2.493,0.72-3.589s1.129-2.045,1.945-2.845
					c0.816-0.8,1.777-1.425,2.881-1.873c1.104-0.448,2.281-0.672,3.53-0.672c1.392,0,2.637,0.24,3.734,0.72
					c1.097,0.48,2.036,1.144,2.821,1.993l-2.232,2.185c-0.562-0.592-1.185-1.044-1.874-1.357s-1.513-0.468-2.473-0.468
					c-0.786,0-1.53,0.14-2.234,0.421c-0.705,0.28-1.321,0.676-1.85,1.188c-0.527,0.512-0.949,1.133-1.259,1.861
					c-0.312,0.728-0.469,1.541-0.469,2.437c0,0.897,0.157,1.709,0.469,2.438c0.311,0.728,0.735,1.349,1.271,1.861
					c0.536,0.512,1.156,0.909,1.862,1.188c0.704,0.281,1.457,0.421,2.258,0.421c0.911,0,1.684-0.132,2.317-0.396
					c0.632-0.264,1.171-0.604,1.62-1.021c0.321-0.288,0.598-0.652,0.829-1.092s0.412-0.932,0.541-1.477h-5.404V870.454z"/>
			</g>
			<g>
				<path style="fill:#FFFFFF;" d="M443.437,859.493c-0.013-2.665-2.087-4.618-4.766-4.659c-2.011-0.031-1.81,0.261-1.815-1.887
					c-0.006-2.389-0.015-4.778,0.006-7.166c0.007-0.824-0.243-1.505-0.787-2.125c-5.098-5.81-10.184-11.63-15.281-17.441
					c-0.262-0.299-0.599-0.532-0.901-0.796c-13.528,0-27.055,0-40.583,0c-1.729,0.639-2.482,1.889-2.478,3.72
					c0.021,8.159,0.009,16.318,0.008,24.478c0,1.21-0.007,1.281-1.197,1.201c-3.258-0.221-5.477,2.147-5.436,5.426
					c0.096,7.568,0.028,15.137,0.031,22.706c0.001,3.44,1.887,5.32,5.333,5.331c1.267,0.004,1.268,0.004,1.268,1.306
					c0.001,4.831-0.002,9.662,0.002,14.493c0.002,2.595,1.262,3.855,3.85,3.855c17.446,0.001,34.891,0.001,52.337,0
					c2.543,0,3.822-1.268,3.824-3.799c0.005-4.912,0.001-9.823,0.003-14.735c0-1.115,0.004-1.112,1.131-1.121
					c0.589-0.005,1.177,0.017,1.761-0.127c2.169-0.535,3.68-2.273,3.689-4.503C443.47,875.597,443.475,867.545,443.437,859.493z
					 M381.498,828.716c11.619-0.001,23.237-0.001,34.856,0c1.192,0,1.206,0.015,1.207,1.222c0.001,4.884-0.001,9.767,0.002,14.651
					c0.001,1.765,0.543,2.305,2.307,2.306c4.159,0.003,8.318,0,12.477,0.003c0.997,0.001,1.044,0.046,1.046,1.052
					c0.006,1.932,0.005,3.864,0,5.796c-0.003,1.038-0.051,1.085-1.098,1.085c-8.479,0.002-16.958,0.001-25.438,0.001
					c-8.452,0-16.905,0-25.357,0c-1.198,0-1.202-0.003-1.202-1.221c-0.001-7.889-0.001-15.778,0-23.667
					C380.299,828.724,380.308,828.716,381.498,828.716z M432.192,903.645c-8.454,0.001-16.908,0.001-25.362,0.001
					c-8.427,0-16.854,0.001-25.281,0c-1.245,0-1.249-0.003-1.249-1.262c-0.001-4.348-0.002-8.696,0.001-13.043
					c0.001-1.01,0.051-1.059,1.041-1.059c16.989-0.002,33.977-0.002,50.966,0c1.041,0,1.086,0.044,1.087,1.094
					c0.003,4.348,0.003,8.696,0.001,13.043C433.394,903.634,433.384,903.645,432.192,903.645z"/>
			</g>
			<g>
				<path style="fill:#FFFFFF;" d="M402.272,862.699h3.698l6.46,17.193h-3.578l-1.416-4.106h-6.628l-1.417,4.106h-3.578
					L402.272,862.699z M406.379,872.808l-1.537-4.298l-0.625-2.089h-0.192l-0.625,2.089l-1.537,4.298H406.379z"/>
				<path style="fill:#FFFFFF;" d="M415.815,866.541c-0.273,0-0.533-0.052-0.781-0.156c-0.248-0.104-0.465-0.248-0.648-0.432
					c-0.184-0.184-0.328-0.396-0.432-0.636c-0.105-0.241-0.156-0.504-0.156-0.793s0.052-0.552,0.156-0.793
					c0.104-0.24,0.248-0.452,0.432-0.636c0.184-0.184,0.4-0.328,0.648-0.432c0.248-0.104,0.508-0.156,0.781-0.156
					c0.56,0,1.041,0.196,1.441,0.588c0.4,0.393,0.601,0.869,0.601,1.429c0,0.56-0.201,1.037-0.601,1.428
					C416.856,866.345,416.375,866.541,415.815,866.541z M414.255,879.891v-11.766h3.145v11.766H414.255z"/>
			</g>
			<g>
				<path style="fill:#FFFFFF;" d="M524.043,859.493c-0.013-2.665-2.087-4.618-4.766-4.659c-2.011-0.031-1.81,0.261-1.815-1.887
					c-0.006-2.389-0.015-4.778,0.006-7.166c0.007-0.824-0.243-1.505-0.787-2.125c-5.098-5.81-10.184-11.63-15.281-17.441
					c-0.262-0.299-0.599-0.532-0.901-0.796c-13.528,0-27.055,0-40.583,0c-1.729,0.639-2.482,1.889-2.478,3.72
					c0.021,8.159,0.009,16.318,0.008,24.478c0,1.21-0.007,1.281-1.197,1.201c-3.258-0.221-5.477,2.147-5.436,5.426
					c0.096,7.568,0.028,15.137,0.031,22.706c0.001,3.44,1.887,5.32,5.333,5.331c1.267,0.004,1.268,0.004,1.268,1.306
					c0.001,4.831-0.002,9.662,0.002,14.493c0.002,2.595,1.262,3.855,3.85,3.855c17.446,0.001,34.891,0.001,52.337,0
					c2.543,0,3.822-1.268,3.824-3.799c0.005-4.912,0.001-9.823,0.003-14.735c0-1.115,0.004-1.112,1.131-1.121
					c0.589-0.005,1.177,0.017,1.761-0.127c2.169-0.535,3.68-2.273,3.689-4.503C524.076,875.597,524.081,867.545,524.043,859.493z
					 M462.104,828.716c11.619-0.001,23.237-0.001,34.856,0c1.192,0,1.206,0.015,1.207,1.222c0.001,4.884-0.001,9.767,0.002,14.651
					c0.001,1.765,0.543,2.305,2.307,2.306c4.159,0.003,8.318,0,12.477,0.003c0.997,0.001,1.044,0.046,1.046,1.052
					c0.006,1.932,0.005,3.864,0,5.796c-0.003,1.038-0.051,1.085-1.098,1.085c-8.479,0.002-16.958,0.001-25.438,0.001
					c-8.452,0-16.905,0-25.357,0c-1.198,0-1.202-0.003-1.202-1.221c-0.001-7.889-0.001-15.778,0-23.667
					C460.905,828.724,460.914,828.716,462.104,828.716z M512.798,903.645c-8.454,0.001-16.908,0.001-25.362,0.001
					c-8.427,0-16.854,0.001-25.281,0c-1.245,0-1.249-0.003-1.249-1.262c-0.001-4.348-0.002-8.696,0.001-13.043
					c0.001-1.01,0.051-1.059,1.041-1.059c16.989-0.002,33.977-0.002,50.966,0c1.041,0,1.086,0.044,1.087,1.094
					c0.003,4.348,0.003,8.696,0.001,13.043C514,903.634,513.989,903.645,512.798,903.645z"/>
			</g>
			<g>
				<path style="fill:#FFFFFF;" d="M470.308,880.275c-0.737,0-1.441-0.104-2.113-0.312c-0.672-0.208-1.289-0.52-1.849-0.936
					c-0.56-0.416-1.048-0.925-1.464-1.525c-0.417-0.601-0.745-1.301-0.985-2.101l3.049-1.2c0.224,0.864,0.616,1.581,1.177,2.149
					s1.297,0.852,2.209,0.852c0.336,0,0.66-0.044,0.973-0.132c0.312-0.087,0.592-0.216,0.84-0.384
					c0.248-0.168,0.444-0.38,0.589-0.636c0.144-0.256,0.216-0.552,0.216-0.888c0-0.32-0.056-0.608-0.168-0.865
					c-0.112-0.255-0.3-0.495-0.564-0.72c-0.264-0.224-0.609-0.44-1.033-0.648c-0.424-0.208-0.948-0.424-1.572-0.648l-1.056-0.384
					c-0.465-0.16-0.933-0.376-1.405-0.648c-0.472-0.272-0.9-0.6-1.284-0.985c-0.385-0.384-0.701-0.836-0.949-1.357
					c-0.249-0.52-0.372-1.108-0.372-1.765c0-0.672,0.132-1.301,0.396-1.885c0.264-0.584,0.64-1.096,1.129-1.537
					c0.488-0.44,1.072-0.784,1.753-1.032c0.681-0.248,1.437-0.372,2.269-0.372c0.864,0,1.612,0.116,2.245,0.348
					c0.633,0.232,1.168,0.528,1.609,0.888c0.44,0.36,0.796,0.757,1.068,1.188c0.272,0.433,0.472,0.84,0.601,1.225l-2.857,1.2
					c-0.161-0.48-0.453-0.913-0.876-1.297c-0.425-0.384-1.005-0.576-1.741-0.576c-0.704,0-1.289,0.164-1.753,0.492
					c-0.465,0.329-0.697,0.757-0.697,1.285c0,0.512,0.224,0.949,0.672,1.309c0.448,0.36,1.161,0.708,2.137,1.044l1.081,0.36
					c0.688,0.241,1.316,0.517,1.885,0.828c0.568,0.312,1.056,0.684,1.465,1.117c0.408,0.433,0.72,0.925,0.936,1.477
					c0.217,0.552,0.324,1.189,0.324,1.909c0,0.897-0.18,1.669-0.54,2.317c-0.36,0.648-0.82,1.181-1.38,1.597
					c-0.561,0.416-1.193,0.728-1.897,0.936C471.668,880.172,470.98,880.275,470.308,880.275z"/>
				<path style="fill:#FFFFFF;" d="M477.175,862.699h3.506l3.554,10.349l0.625,2.209h0.192l0.672-2.209l3.698-10.349h3.506
					l-6.268,17.193h-3.409L477.175,862.699z"/>
				<path style="fill:#FFFFFF;" d="M502.388,870.454h8.428c0.048,0.193,0.088,0.425,0.12,0.697c0.033,0.272,0.049,0.544,0.049,0.816
					c0,1.104-0.169,2.145-0.505,3.121c-0.336,0.977-0.864,1.849-1.585,2.618c-0.768,0.817-1.688,1.449-2.761,1.897
					c-1.073,0.448-2.298,0.672-3.674,0.672c-1.249,0-2.425-0.224-3.529-0.672c-1.105-0.447-2.066-1.072-2.882-1.873
					c-0.816-0.8-1.465-1.749-1.945-2.845c-0.48-1.097-0.72-2.293-0.72-3.59c0-1.296,0.241-2.493,0.72-3.589
					c0.48-1.097,1.129-2.045,1.945-2.845c0.816-0.8,1.777-1.425,2.882-1.873c1.104-0.448,2.28-0.672,3.529-0.672
					c1.392,0,2.637,0.24,3.734,0.72c1.097,0.48,2.038,1.144,2.822,1.993l-2.234,2.185c-0.56-0.592-1.185-1.044-1.874-1.357
					c-0.687-0.312-1.512-0.468-2.473-0.468c-0.784,0-1.528,0.14-2.234,0.421c-0.704,0.28-1.321,0.676-1.848,1.188
					c-0.528,0.512-0.949,1.133-1.261,1.861c-0.312,0.728-0.468,1.541-0.468,2.437c0,0.897,0.156,1.709,0.468,2.438
					c0.312,0.728,0.737,1.349,1.273,1.861c0.536,0.512,1.156,0.909,1.86,1.188c0.705,0.281,1.457,0.421,2.258,0.421
					c0.913,0,1.685-0.132,2.317-0.396c0.632-0.264,1.173-0.604,1.621-1.021c0.32-0.288,0.596-0.652,0.828-1.092
					c0.233-0.44,0.412-0.932,0.541-1.477h-5.402V870.454z"/>
			</g>
			<g>
				<path style="fill:#FFFFFF;" d="M602.976,859.493c-0.013-2.665-2.087-4.618-4.766-4.659c-2.011-0.031-1.81,0.261-1.815-1.887
					c-0.006-2.389-0.015-4.778,0.006-7.166c0.007-0.824-0.243-1.505-0.787-2.125c-5.098-5.81-10.184-11.63-15.281-17.441
					c-0.262-0.299-0.599-0.532-0.901-0.796c-13.528,0-27.055,0-40.583,0c-1.729,0.639-2.482,1.889-2.478,3.72
					c0.021,8.159,0.009,16.318,0.008,24.478c0,1.21-0.007,1.281-1.197,1.201c-3.258-0.221-5.477,2.147-5.436,5.426
					c0.096,7.568,0.028,15.137,0.031,22.706c0.001,3.44,1.887,5.32,5.333,5.331c1.267,0.004,1.268,0.004,1.268,1.306
					c0.001,4.831-0.002,9.662,0.002,14.493c0.002,2.595,1.262,3.855,3.85,3.855c17.446,0.001,34.891,0.001,52.337,0
					c2.543,0,3.822-1.268,3.824-3.799c0.005-4.912,0.001-9.823,0.003-14.735c0-1.115,0.005-1.112,1.131-1.121
					c0.589-0.005,1.178,0.017,1.761-0.127c2.169-0.535,3.68-2.273,3.689-4.503C603.01,875.597,603.015,867.545,602.976,859.493z
					 M541.037,828.716c11.619-0.001,23.237-0.001,34.856,0c1.193,0,1.206,0.015,1.207,1.222c0.001,4.884-0.002,9.767,0.002,14.651
					c0.001,1.765,0.543,2.305,2.307,2.306c4.159,0.003,8.318,0,12.477,0.003c0.997,0.001,1.044,0.046,1.046,1.052
					c0.006,1.932,0.005,3.864,0,5.796c-0.003,1.038-0.051,1.085-1.098,1.085c-8.479,0.002-16.958,0.001-25.438,0.001
					c-8.452,0-16.905,0-25.357,0c-1.198,0-1.202-0.003-1.202-1.221c-0.001-7.889-0.001-15.778,0-23.667
					C539.838,828.724,539.847,828.716,541.037,828.716z M591.731,903.645c-8.454,0.001-16.908,0.001-25.362,0.001
					c-8.427,0-16.854,0.001-25.281,0c-1.245,0-1.249-0.003-1.249-1.262c-0.001-4.348-0.003-8.696,0.001-13.043
					c0.001-1.01,0.051-1.059,1.041-1.059c16.989-0.002,33.977-0.002,50.966,0c1.041,0,1.086,0.044,1.087,1.094
					c0.003,4.348,0.003,8.696,0.001,13.043C592.934,903.634,592.923,903.645,591.731,903.645z"/>
			</g>
			<g>
				<path style="fill:#FFFFFF;" d="M549.998,865.772v3.986h6.891v3.074h-6.891v3.986h7.659v3.073h-10.901v-17.193h10.901v3.073
					H549.998z"/>
				<path style="fill:#FFFFFF;" d="M560.635,879.891v-17.193h6.051c0.816,0,1.581,0.132,2.293,0.396
					c0.712,0.264,1.333,0.636,1.861,1.117c0.528,0.48,0.944,1.053,1.249,1.717c0.304,0.665,0.456,1.397,0.456,2.198
					c0,0.816-0.152,1.557-0.456,2.221c-0.305,0.664-0.721,1.236-1.249,1.717c-0.528,0.48-1.149,0.852-1.861,1.117
					c-0.713,0.264-1.477,0.396-2.293,0.396h-2.809v6.315H560.635z M566.735,870.503c0.848,0,1.489-0.241,1.921-0.721
					c0.432-0.48,0.648-1.032,0.648-1.656c0-0.304-0.052-0.601-0.156-0.889c-0.105-0.288-0.264-0.54-0.48-0.756
					c-0.216-0.217-0.484-0.388-0.805-0.516c-0.32-0.129-0.696-0.193-1.128-0.193h-2.857v4.731H566.735z"/>
				<path style="fill:#FFFFFF;" d="M580.109,880.275c-0.737,0-1.441-0.104-2.113-0.312c-0.672-0.208-1.289-0.52-1.849-0.936
					c-0.56-0.416-1.049-0.925-1.465-1.525c-0.416-0.601-0.744-1.301-0.985-2.101l3.049-1.2c0.224,0.864,0.616,1.581,1.177,2.149
					c0.56,0.568,1.296,0.852,2.209,0.852c0.336,0,0.66-0.044,0.973-0.132c0.312-0.087,0.592-0.216,0.84-0.384
					c0.248-0.168,0.444-0.38,0.588-0.636c0.144-0.256,0.217-0.552,0.217-0.888c0-0.32-0.057-0.608-0.168-0.865
					c-0.112-0.255-0.3-0.495-0.565-0.72c-0.264-0.224-0.608-0.44-1.032-0.648c-0.424-0.208-0.949-0.424-1.573-0.648l-1.056-0.384
					c-0.465-0.16-0.932-0.376-1.404-0.648c-0.473-0.272-0.901-0.6-1.285-0.985c-0.384-0.384-0.701-0.836-0.949-1.357
					c-0.248-0.52-0.372-1.108-0.372-1.765c0-0.672,0.132-1.301,0.396-1.885c0.264-0.584,0.64-1.096,1.129-1.537
					c0.489-0.44,1.073-0.784,1.753-1.032c0.68-0.248,1.437-0.372,2.269-0.372c0.865,0,1.613,0.116,2.246,0.348
					c0.632,0.232,1.168,0.528,1.609,0.888c0.44,0.36,0.796,0.757,1.068,1.188c0.272,0.433,0.472,0.84,0.601,1.225l-2.857,1.2
					c-0.161-0.48-0.453-0.913-0.877-1.297s-1.005-0.576-1.741-0.576c-0.705,0-1.289,0.164-1.753,0.492
					c-0.465,0.329-0.696,0.757-0.696,1.285c0,0.512,0.224,0.949,0.672,1.309c0.448,0.36,1.16,0.708,2.137,1.044l1.08,0.36
					c0.689,0.241,1.317,0.517,1.885,0.828c0.568,0.312,1.056,0.684,1.465,1.117c0.408,0.433,0.72,0.925,0.936,1.477
					c0.216,0.552,0.324,1.189,0.324,1.909c0,0.897-0.18,1.669-0.54,2.317c-0.36,0.648-0.821,1.181-1.38,1.597
					c-0.561,0.416-1.193,0.728-1.897,0.936C581.47,880.172,580.782,880.275,580.109,880.275z"/>
			</g>
			<g>
				<path style="fill:#FFFFFF;" d="M655.431,876.625l8.716-10.854h-8.332v-3.073h12.103v3.266l-8.621,10.854h8.716v3.073h-12.582
					V876.625z"/>
				<path style="fill:#FFFFFF;" d="M670.702,862.699h3.242v17.193h-3.242V862.699z"/>
				<path style="fill:#FFFFFF;" d="M677.402,879.891v-17.193h6.051c0.817,0,1.581,0.132,2.293,0.396
					c0.712,0.264,1.333,0.636,1.861,1.117s0.944,1.053,1.249,1.717c0.304,0.665,0.456,1.397,0.456,2.198
					c0,0.816-0.152,1.557-0.456,2.221c-0.305,0.664-0.721,1.236-1.249,1.717s-1.149,0.852-1.861,1.117
					c-0.713,0.264-1.477,0.396-2.293,0.396h-2.809v6.315H677.402z M683.501,870.503c0.848,0,1.489-0.241,1.921-0.721
					c0.433-0.48,0.648-1.032,0.648-1.656c0-0.304-0.052-0.601-0.156-0.889c-0.105-0.288-0.264-0.54-0.48-0.756
					c-0.216-0.217-0.484-0.388-0.805-0.516c-0.32-0.129-0.696-0.193-1.128-0.193h-2.857v4.731H683.501z"/>
			</g>
		</g>
		<g style="opacity:0.61;">
			<path style="fill:#FFFFFF;" d="M609.144,863.785h19.739v4.881h-19.739V863.785z M609.144,872.201h19.739v4.884h-19.739V872.201z"
				/>
		</g>
	</g>
	<g style="opacity:0.61;">
		<path style="fill:#FFFFFF;" d="M297,963.076h3.498c2.75,0,4.603,1.768,4.603,4.297s-1.854,4.296-4.603,4.296H297V963.076z
			 M300.449,970.883c2.283,0,3.756-1.448,3.756-3.51s-1.473-3.511-3.756-3.511h-2.541v7.021H300.449z"/>
		<path style="fill:#FFFFFF;" d="M315.251,967.373c0-2.504,1.915-4.37,4.517-4.37c2.577,0,4.505,1.853,4.505,4.37
			c0,2.516-1.927,4.369-4.505,4.369C317.166,971.742,315.251,969.877,315.251,967.373z M323.365,967.373
			c0-2.05-1.534-3.56-3.596-3.56c-2.075,0-3.621,1.51-3.621,3.56c0,2.049,1.546,3.559,3.621,3.559
			C321.831,970.932,323.365,969.422,323.365,967.373z"/>
		<path style="fill:#FFFFFF;" d="M346.724,963.076l-2.897,8.593h-0.957l-2.516-7.328l-2.529,7.328h-0.945l-2.897-8.593h0.933
			l2.479,7.389l2.566-7.389h0.847l2.529,7.426l2.516-7.426H346.724z"/>
		<path style="fill:#FFFFFF;" d="M364.435,963.076v8.593h-0.749l-5.524-6.972v6.972h-0.908v-8.593h0.749l5.536,6.973v-6.973H364.435
			z"/>
		<path style="fill:#FFFFFF;" d="M376.108,963.076h0.908v7.807h4.812v0.786h-5.72V963.076z"/>
		<path style="fill:#FFFFFF;" d="M391.279,967.373c0-2.504,1.915-4.37,4.517-4.37c2.577,0,4.505,1.853,4.505,4.37
			c0,2.516-1.927,4.369-4.505,4.369C393.194,971.742,391.279,969.877,391.279,967.373z M399.392,967.373
			c0-2.05-1.534-3.56-3.596-3.56c-2.075,0-3.621,1.51-3.621,3.56c0,2.049,1.546,3.559,3.621,3.559
			C397.858,970.932,399.392,969.422,399.392,967.373z"/>
		<path style="fill:#FFFFFF;" d="M416.478,969.374h-4.787l-1.031,2.295h-0.945l3.928-8.593h0.896l3.928,8.593h-0.957
			L416.478,969.374z M416.147,968.637l-2.062-4.615l-2.062,4.615H416.147z"/>
		<path style="fill:#FFFFFF;" d="M428.765,963.076h3.498c2.75,0,4.603,1.768,4.603,4.297s-1.854,4.296-4.603,4.296h-3.498V963.076z
			 M432.214,970.883c2.283,0,3.756-1.448,3.756-3.51s-1.473-3.511-3.756-3.511h-2.541v7.021H432.214z"/>
		<path style="fill:#FFFFFF;" d="M465.256,969.374h-4.787l-1.031,2.295h-0.945l3.928-8.593h0.896l3.928,8.593h-0.957
			L465.256,969.374z M464.925,968.637l-2.062-4.615l-2.062,4.615H464.925z"/>
		<path style="fill:#FFFFFF;" d="M477.543,963.076h0.908v7.807h4.812v0.786h-5.72V963.076z"/>
		<path style="fill:#FFFFFF;" d="M493.647,963.076h0.908v7.807h4.812v0.786h-5.72V963.076z"/>
		<path style="fill:#FFFFFF;" d="M522.749,963.862v3.376h4.443v0.786h-4.443v3.646h-0.909v-8.593h5.891v0.786H522.749z"/>
		<path style="fill:#FFFFFF;" d="M538.485,963.076h0.909v8.593h-0.909V963.076z"/>
		<path style="fill:#FFFFFF;" d="M551.067,963.076h0.909v7.807h4.811v0.786h-5.72V963.076z"/>
		<path style="fill:#FFFFFF;" d="M573.246,970.883v0.786h-6.076v-8.593h5.891v0.786h-4.983v3.056h4.443v0.774h-4.443v3.191H573.246z
			"/>
		<path style="fill:#FFFFFF;" d="M597.255,963.862v3.376h4.443v0.786h-4.443v3.646h-0.909v-8.593h5.891v0.786H597.255z"/>
		<path style="fill:#FFFFFF;" d="M612.119,967.373c0-2.504,1.915-4.37,4.517-4.37c2.577,0,4.505,1.853,4.505,4.37
			c0,2.516-1.927,4.369-4.505,4.369C614.034,971.742,612.119,969.877,612.119,967.373z M620.232,967.373
			c0-2.05-1.534-3.56-3.596-3.56c-2.075,0-3.622,1.51-3.622,3.56c0,2.049,1.547,3.559,3.622,3.559
			C618.698,970.932,620.232,969.422,620.232,967.373z"/>
		<path style="fill:#FFFFFF;" d="M637.919,971.669l-1.963-2.762c-0.222,0.024-0.442,0.037-0.688,0.037h-2.307v2.725h-0.909v-8.593
			h3.216c2.185,0,3.511,1.105,3.511,2.946c0,1.351-0.712,2.295-1.964,2.7l2.099,2.946H637.919z M637.871,966.022
			c0-1.375-0.909-2.161-2.627-2.161h-2.283v4.309h2.283C636.962,968.17,637.871,967.373,637.871,966.022z"/>
		<path style="fill:#FFFFFF;" d="M658.724,963.076v8.593h-0.871v-6.874l-3.376,5.782h-0.429l-3.376-5.745v6.837h-0.872v-8.593h0.749
			l3.732,6.371l3.695-6.371H658.724z"/>
		<path style="fill:#FFFFFF;" d="M675.787,969.374h-4.788l-1.031,2.295h-0.946l3.928-8.593h0.896l3.928,8.593h-0.957
			L675.787,969.374z M675.455,968.637l-2.062-4.615l-2.062,4.615H675.455z"/>
		<path style="fill:#FFFFFF;" d="M689.312,963.862h-3.02v-0.786h6.948v0.786h-3.02v7.807h-0.908V963.862z"/>
		<path style="fill:#FFFFFF;" d="M702.605,970.626l0.356-0.7c0.614,0.601,1.706,1.043,2.835,1.043c1.608,0,2.308-0.675,2.308-1.522
			c0-2.357-5.29-0.908-5.29-4.087c0-1.265,0.982-2.357,3.167-2.357c0.97,0,1.976,0.282,2.664,0.761l-0.307,0.724
			c-0.737-0.479-1.596-0.712-2.357-0.712c-1.571,0-2.271,0.7-2.271,1.559c0,2.357,5.29,0.933,5.29,4.063
			c0,1.265-1.006,2.344-3.204,2.344C704.508,971.742,703.243,971.288,702.605,970.626z"/>
	</g>
</g>
<g>
</g>
<g>
	<path style="fill-rule:evenodd;clip-rule:evenodd;fill:#060606;" d="M517.238,130.346c-0.867-0.651-2.166-1.387-2.892-1.844
		c-4.947-3.117-9.468-6.949-9.315-13.37l0.135-5.683l5.439-1.653c11.807-3.588,33.683,0.25,47.015,3.564
		c-0.309-0.8-0.565-1.634-0.765-2.518l-2.003-8.827l9.021-0.748c3.322-0.275,6.628,0.065,9.846,0.918
		c2.682,0.711,5.259,1.764,7.715,3.051c4.757,2.491,9,5.813,13.002,9.368c1.159,1.031,2.296,2.084,3.44,3.13
		c0.928-0.748,1.827-1.5,2.64-2.131c1.579-1.224,3.199-2.4,4.919-3.42c5.119-3.036,10.639-5.372,16.337-7.081
		c5.797-1.739,13.308-2.769,19.321-3.418c6.919-0.746,18.815-1.828,24.626,2.608l2.607,1.991l0.419,3.254
		c0.116,0.901,0.116,1.814,0,2.716c-0.552,4.28-3.337,7.051-6.505,9.511c3.444-0.989,6.803-2.023,9.953-2.947
		c4.206-1.234,9.164-3.57,13.249-5.29c4.164-1.752,14.73-6.669,18.999-6.417l8.593,0.507l-1.282,8.512
		c-0.572,3.796-2.752,8.148-4.699,11.79c1.852,0.065,3.703,0.151,5.558,0.267c7.757,0.488,21.165,1.455,26.463,7.821l3.437,4.13
		l-2.598,4.702c-2.322,4.203-7.945,8.92-12.276,13.541c3.612,0.32,7.236,0.509,10.918,0.529c7.836,0.042,15.756-0.515,23.584-0.9
		l9.381-0.461l-1.196,9.315c-1.04,8.096-3.594,15.963-6.938,23.387c-0.836,1.856-1.722,3.682-2.647,5.492
		c6.541,2.292,16.009,4.178,20.048,4.384l6.512,0.333l0.878,6.462c1.115,8.21-5.58,15.282-11.421,20.059
		c-3.758,3.074-8.293,6.155-12.635,8.356c-0.838,0.424-1.778,0.81-2.748,1.183c1.251,2.545,2.516,5.078,3.654,7.678
		c3.21,7.339,5.762,15.919,2.476,23.699l-1.834,4.338l-3.329,0.306l0.075,1.942c0.148,3.792-1.015,7.324-3.533,10.18
		c-1.469,1.665-3.162,2.853-5.031,4.011c-0.497,0.308-1.498,0.865-1.996,1.291c-0.015,0.035-0.031,0.069-0.042,0.101
		c0.012,0.055,0.031,0.116,0.045,0.162c0.14,0.456,0.371,0.931,0.579,1.359c1.742,3.574,3.231,6.365,3.069,10.51l-0.279,7.191
		l-9.496,0.471c-5.608,10.639-9.484,25.569-11.158,36.698c-1.258,8.355-3.167,16.439-5.475,24.556
		c-1.079,3.795-1.919,7.664-2.863,11.503c1.741,0.003,3.482,0.096,5.235,0.298c10.847,1.255,19.991,6.429,27.64,14.103
		c3.555,3.567,7.62,6.757,11.343,10.172c6.787,6.227,12.908,13.313,14.674,22.651c0.271,1.433,0.461,2.955,0.682,4.435
		c0.227,0.104,0.454,0.211,0.68,0.325c2.48,1.232,4.859,2.702,7.151,4.252c6.147,4.157,10.482,8.625,15.021,14.428
		c4.696,6.004,8.76,11.202,11.123,18.64c0.793,2.497,1.384,6.158,2.609,8.42c3.226,5.961,5.684,12.021,7.832,18.434
		c0.843,2.516,2.09,7.199,3.405,9.397c1.587,2.653,3.538,5.021,4.948,7.791c2.764,5.434,2.752,10.943,1.719,16.828
		c-1.386,7.885-6.047,19.515-13.887,22.728c-0.842,0.345-1.649,0.641-2.462,0.918c-0.371,0.628-0.75,1.252-1.163,1.883
		c-7.276,11.128-13.797,16.613-26.29,20.704c-2.68,0.878-5.332,1.713-7.812,3.085c-2.682,1.482-5.177,3.3-7.818,4.864
		c-9.699,5.744-18.724,7.408-29.787,5.691c-4.794-0.744-9.546-2.035-14.361-2.697c-1.441,1.866-3.119,3.523-4.972,4.954l1.641,0.877
		l0.572,3.929c0.228,1.57,0.389,3.128,0.539,4.706c0.043,0.454,0.08,1.108,0.195,1.548c0.12,0.455,1.273,1.961,1.551,2.326
		c0.844,1.107,1.826,2.103,2.75,3.142c2.302,2.589,3.882,5.117,5.132,8.367c1.825,4.742,2.167,9.211,3.229,14.058
		c0.418,1.907,1.126,3.732,1.707,5.592c1.007,3.226,1.502,6.217,1.382,9.612l-0.158,4.47l-4.346,2.381
		c0.362-0.053,0.696-0.102,0.992-0.143c4.011-0.555,8.036-1.012,12.069-0.344l8.94,1.481l-2.726,8.641
		c-1.876,5.947-6.606,11.623-8.729,17.504l2.339,1.127l0.387,4.46c0.162,1.857,0.026,3.648-0.281,5.48
		c-0.05,0.302-0.12,0.636-0.188,0.972c1.075,1.193,1.983,2.038,2.921,3.952l2.232,4.555l-3.23,3.911
		c-1.07,1.295-2.316,2.327-3.673,3.187c1.391,0.959,2.748,1.972,4.118,3.13c4.696,3.968,8.896,8.768,12.746,13.541
		c6.948,8.613,18.367,13.125,27.2,19.626c1.285,0.947,3.977,3.132,5.444,3.711c1.87,0.737,7.065,1.149,9.152,1.444
		c2.929,0.414,5.355,1.375,7.781,3.047c0.899,0.619,1.845,1.432,2.824,1.906c5.621,2.727,8.163,4.953,10.11,11.175
		c3.039,9.716,3.202,16.632-1.741,25.749c-1.881,3.47-3.664,6.828-6.715,9.45c-3.254,2.797-7.063,4.003-11.106,4.445
		c-10.104,12.013-26.67,14.684-41.687,10.634c-3.549-0.957-6.306-2.377-9.232-4.56c-0.6-0.449-1.191-0.915-1.795-1.363
		c-1.097,0.177-2.389,0.505-3.237,0.688c-2.042,0.44-4.14,0.896-6.225,1.046c-5.869,0.424-11.656,0.068-17.465-0.804
		c-7.518-1.128-13.891-3.151-19.949-7.852c-4.821-3.74-8.725-8.134-13.804-11.793c-0.581-0.417-1.432-1.088-2.136-1.516
		c-1.346,0.069-3.325,0.466-4.526,0.628c-10.989,1.487-21.999,4.441-33.154,3.957c-9.627-0.417-18.026-3.364-25.93-8.874
		c-6.912-4.818-10.375-12.921-11.851-21.163c-2.257-0.106-4.472-0.658-6.679-1.211c-4.656-1.166-8.59-0.692-13.111-3.407
		l-3.906-2.345l0.093-4.555c0.193-9.515,9.143-13.24,8.746-19.077c-0.126-1.844-0.694-5.398-1.445-9.059
		c-1.085,0.767-2.292,1.377-3.695,1.739l-1.169,0.302l-1.742-0.091c-0.792,2.922-1.656,5.212-5.038,9.001
		c-0.253,0.284-0.535,0.577-0.799,0.871c-0.088,0.369-0.159,0.766-0.229,1.106c-0.414,2.001-0.605,3.896-0.656,5.938
		c-0.133,5.348,0.512,10.048,1.898,15.19c1.191,4.416,2.713,8.66,2.665,13.306l-0.073,7.153l-7.129,0.601
		c-2.577,0.217-4.778,0.018-6.942-0.56c-0.079,0.149-0.161,0.297-0.248,0.444l-2.092,3.577l-4.133,0.297
		c-4.066,0.29-7.095-0.375-10.692-1.22c-0.354,0.684-0.75,1.382-1.224,2.116c-0.337,0.521-1.071,1.657-1.364,2.393
		c0.319,1.043,1.158,2.716,1.528,3.606c1.469,3.538,2.561,7.087,3.378,10.833c0.667,3.059,0.78,5.834,1.266,8.823
		c0.287,1.757,1.013,3.075,1.976,4.567c4.605,7.133,7.601,14.607,7.788,23.166c0.055,2.525-0.157,4.944-0.353,7.452
		c-0.078,1-0.218,2.456-0.025,3.447c0.028,0.139,0.064,0.274,0.119,0.404c5.301,12.54,4.832,32.146-6.199,41.547
		c-9.729,8.291-26.432,10.175-38.833,9.723c-5.171-0.188-16.644-1.089-21.186-2.843c-1.938-0.748-3.37-1.825-4.933-2.825
		c-9.579,1.514-20.522,2.622-29.29-1.928c-2.663-1.381-4.633-2.974-6.725-4.919c-0.711-0.129-1.619-0.192-2.198-0.245
		c-2.025-0.185-4.043-0.327-6.063-0.576c-5.803-0.711-11.318-2.193-16.228-5.491c-0.788-0.529-1.689-0.891-2.593-1.169
		c-0.588-0.182-1.188-0.329-1.789-0.46c-5.402-1.173-10.237-1.243-15.27-4.097c-4.33-2.456-7.072-6.132-8.658-10.513
		c-1.701-0.607-3.388-1.246-4.93-2.185c-2.962-1.803-4.922-4.309-6.605-7.292c-4.747-8.417-5.596-13.407-0.393-21.891
		c1.193-1.946,1.313-3.411,1.823-5.574c1.5-6.36,5.097-10.274,10.191-14.164c0.527-0.401,0.94-0.834,1.3-1.391
		c1.383-2.142,2.472-6.602,3.3-9.088c2.28-6.843,5.236-12.866,9.239-18.883c0.49-0.736,0.992-1.451,1.506-2.148l-5.495,0.203
		l0.791-8.884c0.139-1.547,0.725-3.579,0.984-5.213c-0.41-0.471-0.808-0.961-1.201-1.569c-0.1-0.153-0.194-0.313-0.287-0.476
		c-4.794-0.979-9.588-2.424-13.827-4.776l-7.116-3.948l4.191-6.975c1.035-1.723,2.317-3.158,3.749-4.416
		c-2.249-1.063-4.291-2.516-5.95-4.565l-4.919-6.076l6.046-4.954c1.859-1.523,4.667-2.929,6.79-4.113
		c2.972-1.657,5.934-3.342,8.789-5.197c1.304-0.848,2.59-1.733,3.827-2.678c0.726-1.216,1.618-5.706,1.951-7.039
		c1.094-4.394,2.628-8.586,3.94-12.906c1.261-4.148,2.362-8.335,3.783-12.435c1.496-4.32,3.463-8.156,5.465-12.236
		c1.449-2.953,2.833-5.483,3.963-7.999c-5.78,2.046-12.491,3.079-17.234-1.498c-4.133-3.989-5.657-11.627-5.921-17.234
		c-0.215-4.555-1.032-8.625-1.631-13.107c-1.219-9.133,2.273-20.952,6.567-28.985c1.896-3.546,4.071-6.756,6.327-10.07
		c0.81-1.189,1.627-2.229,2.506-3.203c-1.636-1.476-3.208-3.079-4.732-5.084c-3.487-4.588-6.212-10.274-7.823-15.813
		c-1.704-5.85-1.907-11.576,0.143-17.361c1.017-2.868,2.463-5.143,3.743-7.664c-3.828-1.246-5.716-4.944-7.85-8.222
		c-2.312-1.504-3.626-2.482-5.083-5.155c-0.237-0.434-0.457-0.906-0.68-1.369c-1.597-0.234-3.963-0.28-5.08-0.319l-7.299-0.255
		l-0.283-7.299c-0.033-0.856-0.003-1.714,0.083-2.566c0.297-2.946,1.217-5.391,2.141-8.055c-3.093-0.393-6.054-1.269-8.478-3.408
		l-5.543-4.888l4.537-5.835c2.145-2.758,3.814-4.464,4.99-7.777c0.325-1.056,0.439-3.92,0.228-5.703
		c-1.039-0.585-2.113-1.139-3.092-1.824c-2.063-1.444-3.504-2.804-5.336-4.442c-0.829-0.741-1.946-1.426-2.859-2.075
		c-3.893-2.764-6.822-5.931-7.784-10.796l-0.93-4.701l3.752-2.981c3.038-2.415,5.704-3.608,8.979-5.43
		c2.147-1.194,3.186-2.439,4.456-4.565c1.602-2.679,5.577-7.493,6.056-10.47c0.109-0.682,0.233-1.285,0.372-1.835
		c-0.333-0.283-0.647-0.564-0.923-0.841c-2.54-2.547-4.262-5.549-4.728-9.172l-1.144-8.898l8.971,0.034
		c2.238,0.009,6.138-0.19,9.395-0.767c-0.128-2.209-0.395-4.386-0.711-6.715c-0.967-7.122-1.23-12.847-0.228-20.049l1.217-8.747
		l8.548,2.22c4.316,1.121,7.82,3.314,11.9,4.762c0.836,0.297,1.619,0.547,2.371,0.755c0.037-0.721,0.107-1.488,0.224-2.32
		l0.972-6.974l7.039,0.201c4.526,0.13,10.873,2.924,15.175,4.557c2.07,0.786,5.483,2.151,7.963,2.625
		c1.219-0.624,3.142-2.022,3.976-2.786c-0.813-1.202-1.407-2.567-1.907-4.013c-1.015,0.316-2.128,0.475-3.385,0.424
		c-8.859-0.36-11.159-10.815-12.501-17.722c-0.311-1.604-0.56-3.206-0.74-4.829c-0.052-0.472-0.084-1.021-0.154-1.511
		c-0.466-0.732-1.289-1.669-1.784-2.275c-4.149-5.065-7.639-10.861-9.785-17.09c-1.168,0.289-2.026,0.265-3.317,0.129
		c-1.586-0.168-3.098-0.711-4.421-1.605c-5.953-4.019-5.188-12.64-3.643-19.206l-5.042,0.505l-0.135-8.551
		c-0.054-3.37,0.502-6.637,1.523-9.759c-0.54,0.397-1.003,0.746-1.372,1.033c-10.421,8.114-26.094,15.185-39.123,17.705
		c-11.522,2.229-23.003,1.53-34.299-1.531c-17.677-4.791-33.591-14.918-48.13-25.768l-0.134-0.099l-35.837-29.189l-0.215-0.204
		c-1.668-1.582-2.413-2.505-4.678-3.121c-6.61-1.795-13.289-3.54-20.187-3.572c-24.567-0.114-32.779,5.221-51.292,20.071
		c-1.868,1.498-3.76,3.719-5.532,5.412c-3.877,3.707-8.47,7.144-14.091,7.176l-6.253,0.035l-1.442-6.085
		c-2.102-8.872-0.938-17.774-4.061-26.42c-1.209-3.344-2.984-6.952-4.432-10.231c-1.451-3.29-5.234-11.099-5.263-14.508
		l-0.027-3.258l2.285-2.322c7.13-7.246,23.087-13.927,32.986-16.63c14.041-3.833,29.053-4.158,43.295-1.231
		c10.169,2.09,20.438,5.456,30.139,9.134c0.307,0.117,0.615,0.235,0.923,0.352c-2.581-2.5-5.103-4.599-7.026-5.331
		c-5.079-1.934-10.003-2.635-14.877-5.46c-3.712-2.152-5.377-4.291-7.395-7.917c-0.055-0.099-0.12-0.221-0.186-0.323
		c-2.108-1.509-12.051-2.543-14.411-2.761c-6.234-0.576-12.547,0.18-18.821-0.569l-7.75-0.925l0.869-7.758
		c1.012-9.03,10.412-11.526,17.648-13.776c5.889-1.831,12.187-3.002,18.334-3.472c12.963-0.991,26.295,0.713,37.891,6.873
		c4.237,2.251,8.045,5.113,11.521,8.41c4.323,4.099,8.018,8.751,11.572,13.516c4.942,6.627,10.089,14.377,16.545,19.594
		c9.393,7.591,22.082,3.252,32.472,0.564c1.86-0.481,3.732-1.77,5.455-2.62c17.962-8.856,37.093-13.137,56.831-8.26
		c6.064,1.498,11.6,3.724,17.278,6.267c1.022,0.458,2.631,1.232,4.257,1.925c1.146-1.424,2.375-2.76,3.518-3.964
		c5.24-5.518,8.838-9.425,13.291-12.875c-1.907-0.677-3.849-1.262-5.816-1.8c-3.244-0.887-7.763-1.766-10.508-3.656l-4.19-2.887
		l0.917-5.005c1.786-9.749,15.381-16.218,23.568-19.777c6.507-2.829,13.662-5.451,20.519-7.315c1.567-0.425,3.193-0.77,4.816-1.098
		c-0.811-1.063-1.607-2.138-2.372-3.241c-4.252-6.145-7.285-12.936-6.227-20.569l1.051-7.594l7.618,0.86
		c4.466,0.504,8.655,2.672,13.044,3.41C497.597,130.2,507.624,130.38,517.238,130.346L517.238,130.346z"/>
	<path style="fill-rule:evenodd;clip-rule:evenodd;fill:#ED1C24;" d="M616.886,256.508l-4.487,0.602
		c-1.036-2.414-2.069-4.575-3.08-7.203c-0.809-2.103-1.495-5.292-2.559-7.04c-0.58-4.251-0.875-5.646-2.218-9.078
		c-5.57-0.485-16.718,1.169-21.118,2.955c-3.318,1.346-5.23,2.754-7.965,4.426c-2.226,1.361-6.088,2.639-7.73,4.842l-3.612,2.39
		c-3.176,2.738-6.727,7.586-10.526,8.133c-3.026-5.49-3.884-12.571-6.211-18.596c-3.587-0.58-13.091,0.262-17.516,0.274
		c-11.132,0.031-15.754,3.217-25.709,9.519c-2.463,1.559-7.757,6.83-9.146,8.819c-2.521,0.149-3.801,0.011-5.607-0.799
		l-0.734-14.744c-5.068,0.931-9.521,2.574-12.771,5.558c-4.928,4.524-5.725,4.844-5.474,13.497
		c15.114-0.179,7.108-0.025,11.98,2.178c4.28,1.936,6.739-1.477,12.775,3.305c-5.322,3.083-20.727,0.741-24.406,1.816
		c-1.72,0.503-2.426,1.401-2.639,1.573c0.226,6.836,8.547,6.589,14.482,8.319c13.81,4.028,47.83,7.916,62.064,7.744
		c-0.749-1.384-0.027-0.355-1.088-1.526c-0.419-0.463-0.713-0.658-1.214-1.09c-1.242-1.071-1.62-1.163-2.32-2.733
		c9.185-4.214,10.59-6.17,23.334-7.644c-0.087-0.142-0.239-0.507-0.296-0.404c-0.056,0.101-0.222-0.305-0.301-0.387
		c-2.545-2.678-11.519-6.207-13.515-9.058c5.121-3.264,26.673,0.928,32.727,2.66c13.789,3.944,15.253,16.21,18.434,18.804
		c0.704,2.643,12.645,3.079,15.223,3.359c14.078,1.53,38.427,1.565,51.789,0.258c19.905-1.634,19.644-0.758,39.98-4.485
		c12.479-2.287,2.723-8.479,14.677-14.7c10.291-5.356,13.979-1.386,12.609-16.593c-0.396-4.396-1.584-8.017-4.953-9.753
		c-1.146,1.49-3.839,11.193-13.044,19.825c-2.094,1.964-10.905,9.886-13.489,10.764c-1.445,0.491-4.998,1.444-6.406,1.354
		c-1.346-6.931,3.829-31.21-0.941-37.701c-2.481,1.994-7.119,7.38-9.416,10.021c-3.114,3.578-6.455,6.009-10.831,8.936
		c-3.602,2.409-23.119,14.148-26.668,12.334c-1.136-1.29,2.738-24.279,2.042-34.788c-7.927-1.889-13.643,1.486-17.574,5.089
		c-3.444,3.157-9.308,8.813-11.406,12.575C620.347,250.849,617.832,254.697,616.886,256.508L616.886,256.508z"/>
	<path style="fill-rule:evenodd;clip-rule:evenodd;fill:#ED1C24;" d="M627.29,470.282c-0.415,2.987-0.953,0.008,1.12,1.139
		l9.099,3.879c6.378,3.381,14.972,9.179,20.169,14.264c1.483,1.45,2.46,2.292,4.148,4.327c1.667,2.008,2.21,3.581,4.219,5.115
		c4.301-0.731,8.289-4.496,11.375-6.809c2.385-1.786,9.162-4.598,13.036-7.284c4.238-2.939,7.559-5.651,11.817-8.455
		c8.529-5.614,10.825-4.89,13.086-6.115c1.058-0.573,0.518-0.225,1.315-0.919l-0.073-2.82c-1.416-1.865-1.321-1.043-2.752-2.859
		c-3.931-4.992-6.601-7.986-14.213-9.554c-6.484-1.336-22.419-2.149-29.55-2.264c-12.752-0.203-27.099,4.008-35.976,11.66
		L627.29,470.282L627.29,470.282z"/>
	<path style="fill-rule:evenodd;clip-rule:evenodd;fill:#ED1C24;" d="M361.036,301.695c1.956,1.161,13.899,3.001,16.986,3.113
		c7.321,0.265,12.144-0.001,19.29-1.856c11.191-2.905,21.102-8.088,29.03-13.631c5.024-2.532,16.586-10.969,21.396-14.429
		c13.56-9.755,17.15-5.77,16.496-19.372c-11.022,4.169-8.006,6.6-11.23-2.895c-4.409-12.982-4.382-12.378-19.404-23.258
		c-9.334-8.169-29.233-14.719-45.457-14.445c-9.323,0.157-17.202,2.241-24.889,5.417c-4.157,1.717-18.327,7.29-19.353,10.383
		c5.238,0.853,13.756-1.365,19.098-2.216c26.828-4.266,46.533,11.284,53.394,13.107c3.033,3.661,13.009,6.447,20.189,6.532v3.676
		c-1.123-0.162-2.214-0.218-3.303,0.216c-2.048,0.815-2.488,2.709-4.018,3.823c-2.103,1.533-4.304,0.395-9.754,4.494l-0.752,0.642
		c-1.672,0.287-5.359,2.233-7.288,3.06c-2.631,1.127-5.319,2.065-8.252,2.997c-5.765,1.831-73.546,17.677-83.482-1.609
		c4.342,0.198,7.081,2.463,12.362,2.807c-0.904-1.292-0.426-0.707-1.483-1.612c-0.284-0.242-1.101-0.755-1.419-0.944
		c-0.969-0.575-1.751-1.025-3.15-1.876c-6.484-3.941-14.74-10.83-20.968-15.208l-4.252-3.081
		c-13.416-9.183-26.932-15.269-43.001-20.786c-4.124-1.416-13.081-3.995-20.805-5.658l-0.922,2.322
		c3.426,0.975,6.967,1.996,9.577,3.127c5.622,2.436,12.998,7.062,17.688,10.014c5.411,3.406,38.916,31.41,45.001,36.8
		C319.685,281.378,345.824,300.092,361.036,301.695L361.036,301.695z M225.311,245.467c11.891-3.093,22.406-2.622,35.288-2.388
		c-3.626-9.029-22.282-15.931-35.333-20.547c-19.333-6.839-37.736-4.134-53.415,9.529c0.383,3.328,6.005,13.57,7.688,18.498
		c2.839,8.312,3.057,13.271,4.138,22.423c1.697-0.796,3.673-2.569,4.876-3.744C198.043,259.977,212.585,249.848,225.311,245.467
		L225.311,245.467z M220.569,181.792c23.275,3.824,27.898,0.791,49.053,19.305c2.897,2.536,6.106,5.472,8.705,8.243
		c3.755,4.001,6.438,5.738,8.804,8.138c2.7,2.738,3.733,5.102,9.086,7.741c1.758,0.867,11.203,3.623,13.049,3.052
		c-7.501-2.641-10.582-9.203-13.085-12.539l-11.588-14.915c-8.09-9.932-14.114-18.539-31.666-21.467
		C245.746,178.152,225.881,178.299,220.569,181.792L220.569,181.792z"/>
	<path style="fill-rule:evenodd;clip-rule:evenodd;fill:#ED1C24;" d="M582.147,487.502c-0.708,1.174-0.564,0.659-0.525,2.33
		c9.168,2.469,19.025,3.486,26.753,7.324c5.632,2.798,14.978,9.732,19.525,14.295c7.278,7.304,9.397,10.8,13.091,21.038
		c1.406,3.897,3.383,7.971,4.357,12.436l2.763,14.088c2.202-4.967,5.113-5.879,3.456-12.178
		c-4.529-17.228-2.865-11.486,4.927-20.768l5.399-6.436c1.414-1.661,0.435-1.017,2.373-2.007c1.87,1.022,1.002,0.381,2.115,2.366
		c0.473,0.842,0.848,1.619,1.484,2.317c1.656-6.476-1.517-8.273-5.71-17.593c-5.521-12.274-31.824-32.461-49.836-30.363
		c-5.762,2.367-4.211,0.194-15.804,5.794L582.147,487.502L582.147,487.502z"/>
	<path style="fill-rule:evenodd;clip-rule:evenodd;fill:#F3D3A6;" d="M820.466,540.895c1.854-1.656,3.421-3.355,4.046-4.392
		c2.187-3.627,3.271-13.245,1.362-17.481c-2.583-5.732-5.287-6.227-6.976-13.974c-1.12-5.138-2.272-10.835-4.476-15.29
		c-2.699,1.084-1.305,5.365-4.026,7.474c-0.495-0.76-2.103-1.928-2.013-3.297c0.015-0.237,0.418-1.797,0.507-2.18
		c4.941-21.245-16.431-45.08-34.548-51.667c-1.112-0.404-2.253-0.8-3.41-1.168c2.393-8.964-3.371-19.354-12.596-20.959
		c-2.135-5.62-6.677-11.953-15.95-18.214c-7.276-4.911-10.654-6.985-21.732-5.654c-5.31,0.638-7.123,1.133-9.263,4.992
		c-1.18,2.126-4.714,6.965-4.957,9.356l-0.02,1.007c8.93-8.831,19.422-4.742,27.506,1.642c5.676,4.482,10.632,9.309,12.982,16.96
		c5.204,16.929,18.222,18.154,18.931,24.417c0.318,2.795,1.589,9.688-1.586,9.826c-4.07,0.178-9.059,0.112-13.745,3.017
		c-2.59,1.607-9.53,9.68-10.794,12.218l12.381-0.544l3.265,0.208c-2.246,2.185-8.513,2.338-11.335,3.28l-10.684,1.307
		c-4.445,0.772-8.223,1.869-11.361,4.149c-2.738,1.989-6.8,5.208-7.851,7.705c-0.443,8.738,0.839,10.768,8.768,12.151
		c4.415,0.77,12.955,1.902,16.236,4.09c-4.516,2.921-8.933,3.982-14.819,5.358c-5.901,1.379-11.808,2.315-12.489,8.398l1.064,2.916
		c0.463,4.043,2.284,8.184,2.624,13.099l0.806,6.028l1.267,3.242c4.62,0.011,18.527-2.791,23.189-4.206
		c13.617-4.134,23.086-14.211,40.947-14.748c36.573-1.103,35.138,6.62,9.765,27.277c-2.78,2.263-6.465,3.695-10.309,4.396
		c-7.184,1.31-9.909,1.568-16.939,3.186c-3.205,2.192-18.642,6.955-23.722,7.038c-3.223,0.053-6.582,0.648-9.521,1.107
		c2.686,3.268,18.829,5.144,23.623,5.127c11.282-0.037,14.083-2.02,22.136-6.313c11.911-6.35,13.856-5.507,19.841-8.419
		C800.647,561.385,815.291,547.324,820.466,540.895L820.466,540.895z"/>
	<path style="fill-rule:evenodd;clip-rule:evenodd;fill:#F3D3A6;" d="M714.724,737.547l0.573,8.146
		c-12.672,10.219-38.181-9.993-59.335,4.599c-2.48,1.711-2.65,3.784-3.679,7.091c-5.704,0.183-7.119-3.122-10.04-3.774
		c-0.115,0.159-0.202,0.228-0.238,0.538c-0.471,4.055-1.193-0.373-0.677,10.118c0.156,3.184,0.826,6.488,2.691,8.885
		c3.063,3.938,9.211,6.3,15.83,7.822c9.718,2.234,21.182-1.123,31.252-2.931c9.433-1.693,4.879-7.359,24.585,5.928
		c3.001,2.024,4.336,2.819,6.577,5.275c7.315,8.015,12.858,9.983,24.996,10.478c11.628,0.474,11.705-1.357,17.518-6.201
		c4.139,5.194,20.173,10.414,33.662,8.997c5.049-0.531,12.155-3.798,16.37-7.869c17.46-16.859-27.818-18.852-35.258-19.474
		c-6.288-0.524-9.708-5.848-3.068-5.821c6.469,0.026,23.894,2.829,31.242,3.797c5.043,1.05,7.632,1.386,10.257,2.871
		c4.979,2.819,6.799,3.515,5.066-3.774c-2.963-12.444-2.417-6.851-18.784-13.68c-7.905-3.298-17.247-7.832-26.23-14.838
		c-9.565-7.459-17.147-17.179-24.561-22.488c-8.881-6.36-14.211-4.298-14.251-5.017c0.878,4.48,3.97,7.167,4.785,11.279
		c-10.287-0.078-17.537-4.148-33.968-3.396c0.636,2.726,2.864,9.43,4.789,11.177L714.724,737.547L714.724,737.547z"/>
	<path style="fill-rule:evenodd;clip-rule:evenodd;fill:#F3D3A6;" d="M520.476,758.687c-8.496-23.773-22.147-4.407-28.28-3.053
		c-0.566-7.729-0.729-13.847-2.426-21.3c-5.723,1.005-18.626,16.411-20.237,23.121c-1.726,2.467-1.922,7.161-2.211,10.624
		l5.426-1.633c-1.019,2.487-17.943,22.435-20.754,26.588c-2.904,4.289-10.604,17.839-12.322,23.15
		c-0.373,1.154-0.732,3.434-1.17,4.514c-0.74,1.826-2.661,2.998-4.706,4.04c-7.014,3.574-7.086,3.523-8.984,10.62
		c-1.099,4.108-7.733,11.571,2.118,17.088c8.343,4.672,14.208-11.252,16.988-16.227l7.44-10.453l3.92,0.579
		c-2.247,5.252-6.457,8.624-11.261,19.745c-0.946,2.193-2.94,4.543-4.222,6.251c-3.409,2.235-4.559,11.207,1.224,13.676
		c2.52,1.077,6.088,1.454,9.247,1.211c6.741-0.517,12.082-27.129,19.252-36.294c0.719-0.92,7.722-6.555,3.702,1.56
		c-4.981,10.053-18.196,33.637-9.85,36.881l4.935,0.684c5.353,0.199,7.851-0.739,9.289-2.308c6.454-7.044,6.25-20.862,17.034-34.788
		c4.744-6.125,7.522-4.903,4.002,2.18c-1.52,3.058-3.707,5.806-5.097,7.822c-2.872,4.163-3.616,9.92-5.787,15.133
		c-3.21,7.707-8.312,9.414,0.631,15.443c1.386,0.934,1.651,1.506,2.929,2.165c3.018,1.555,13.031,3.168,15.855-2.027
		c1.284-2.361-0.003-7.433,0.193-10.47c0.775-11.986,13.921-32.36,28.033-32.521c1.014-0.011,3.982,2.634,5.103,2.735
		c-3.14,1.229-6.234,1.364-9.994,3.162c-3.285,1.571-5.776,2.874-7.922,5.628c-8.62,11.069-17.448,33.868,0.465,41.197
		c8.244,3.373,20.481,4.632,29.966,1.61c16.488-5.253,20.372-17.292,14.777-32.723c-1.342-3.7-5.494-9.18-5.822-11.834
		c3.81-0.07,3.964,2.536,6.568,4.286c0.86-7.486,0.032-16.609-5.25-21.834c-0.756-0.747-1.587-1.895-2.088-2.638
		c-0.854-1.93-0.161-1.351-1.966-2.131c-0.851-3.061-2.521-6.054-2.824-9.865c-0.319-4.009,0.204-7.775-0.726-11.678
		c-0.783-3.291-2.189-5.948-3.154-9.212c-1.272-4.306-0.886-7.311-1.29-11.792l-0.147-7.876l-5.396,2.414
		c-0.115-0.097-0.251-0.245-0.318-0.319l-1.788-2.362c-6.937-10.38-8.237-4.42-17.093,0.082c-1.696-0.699-2.37-1.578-3.385-3.317
		C522.979,763.556,521.207,759.985,520.476,758.687L520.476,758.687z"/>
	<path style="fill-rule:evenodd;clip-rule:evenodd;fill:#F3D3A6;" d="M542.846,612.86c32.083-17.716,93.076-60.66,78.958-87.915
		c-3.141-6.064-15.008-16.252-24.618-12.544c-6.426,2.48-20.729,11.299-27.211,11.687c5.715-7.802,16.189-8.708,18.455-19.595
		l-5.634,0.16c-14.284,1.061-13.361,1.708-27.538-1.044c-6.531-1.266-15.37-1.747-20.371-1.775
		c-12.828-0.074-15.644,3.651-24.155,6.189c-0.622,0.186-2.145-2.832-2.838-2.641c3.469-7.627,21.828-11.462,29.126-10.785
		c4.94,0.458,9.751,1.56,14.465,2.408l15.528,2.035c-0.126-8.507-26.685-35.887-76.52-24.802c-5.531,1.231-9.211,3.15-14.177,6.163
		c0.68-4.911,3.61-8.869,7.053-10.647c3.028-1.563,6.407-2.812,9.809-3.358c5.122-0.926,8.78-0.495,14.03-0.38
		c-1.419-26.041-10.475-22.927-10.519-30.931c4.573,0.422,7.983,3.934,10.996,6.239c2.54,1.943,10.176,4.769,13.151,16.777
		c7.594-0.201,11.817-9.971,12.958-17.76c1.891-12.912-2.508-16.296-6.385-24.064c-6.755-3.63-14.921-5.63-24.075-6.078
		c-8.616-0.587-24.823,3.754-31.448,7.269c0.087,0.087,0.252,0.073,0.294,0.224l2.658,1.471c-7.433,2.898-16.446,0.96-29.566,10.268
		c-6.996,4.963-14.388,12.548-17.495,23.203c-4.037,13.849-3.526,39.566,3.156,53.071c1.811,3.659,2.63,2.576,6.556,3.687
		c3.433,0.972,5.782,2.63,7.858,1.465c3.421-2.158,1.148-7.045,5.213-6.795c-0.594,6.163-2.439,10.964-2.437,18.461
		c0.001,4.069,1.103,15.212,3.204,17.55l1.112,3.553c1.257,5.376,7.261,16.646,10.254,17.954c3.596,2.221,8.089,3.967,12.143,5.203
		c8.528,2.598,7.599-1.574,11.811-4.355l1.13,2.909c-0.252,15.142,8.092,28.662,18.107,39.737
		C519.85,620.511,526.832,621.704,542.846,612.86L542.846,612.86z"/>
	<path style="fill-rule:evenodd;clip-rule:evenodd;fill:#ED1C24;" d="M705.882,578.609c1.295-0.667,1.397-0.724,2.315-2.585
		c5.487-11.133,5.237-17.078,4.869-29.816c-0.166-5.758-0.969-11.643-2.872-16.444c-1.908-4.818-0.841-3.938-3.425-8.555
		c-0.118-0.211-0.778-1.611-0.899-1.886c-1.017-2.308-0.762-2.245-2.078-3.306c-3.216,1.577-6.91,7.195-10.135,10.476
		c-14.529,14.777-15.414,8.448-18.281,22.489c-1.086,5.321-4.27,11.831-4.001,16.675c0.402,2.468-1.041,10.561-1.8,13.611
		c-3.288,1.258-4.6,1.127-4.623,5.371C676.275,589.43,700.546,586.597,705.882,578.609L705.882,578.609z"/>
	<path style="fill-rule:evenodd;clip-rule:evenodd;fill:#F3D3A6;" d="M638.546,290.736l-33.312-0.99
		c2.846,4.937,12.608,15.461,17.912,18.065c4.243,2.082,23.779,8.313,28.646,6.625l1.749-0.966c0.568,0.68,0.588,0.033,0.5,1.772
		c-0.825,2.613-2.198,4.32-3.576,6.544c-2.141,3.458-2.222,2.684-5.351,5.319l1.402,3.424c0.719,0.676,0.433-0.307,1.179,1.659
		c-2.334,1.764-5.565,3.15-8.567,5.318c-2.576,1.861-5.251,3.967-7.007,6.28c-2.926,0.409-5.099-0.178-7.28-1.052
		c-1.779-0.712-3.738-1.494-3.8-3.487c-1.282,0.724-1.74,1.28-3.087,2.021c-1.264,0.694-2.28,0.967-3.398,1.589l2.312-0.281
		c-0.495,0.961-0.324,1.47-2.898,2.562c-4.585,1.947-10.493,1.465-12.939,3.05c-3.626-0.622-14.575,0.208-19.571,0.028
		c-7.531-0.272-9.891-2.335-14.262-5.922c-4.922-4.042-13.007-17.775-14.43-27.265c9.504-1.455,11.147-4.913,26.296-7.16
		c-4.117-2.257-11.339-0.269-16.414-1.114c5.048-4.434,10.566,1.154,11.945-5.629l-6.722-1.915c-2.95-0.56-4.896-0.036-7.94,0.471
		c-4.326,0.721-10.267,2.557-14.599,2.401c3.78-5.896,11.206-9.727,12.007-11.938c-6.929-1.108-12.62-2.496-18.097,1.156
		c-3.541,2.361-8.786,6.312-10.389,10.906l6.698-2.375c-0.429,9.331-5.231,9.048-7.392,32.437l-8.518,4.162
		c0.851-1.782,4.057-4.766,5.482-5.666c-2.747,0.837-5.146,2.434-7.016,4.151c-2.035-0.462-0.333,0.667-2.112-1.289l-4.072-6.643
		c-3.492-8.716-5.362-11.49-10.342-19.021c-2.272-3.435-3.437-4.86-7.684-7.016c-19.163-9.732-27.055-0.712-31.991,18.519
		c-2.607,10.154,0.158,15.555,4.533,22.52c3.848,6.126,8.593,11.319,13.173,16.185c2.651,2.816,5.499,4.345,7.923,6.759
		c1.397,1.391,2.01,2.594,3.309,4.04c0.674,0.751,0.878,0.818,1.691,1.687c6.543,6.998,11.332,9.494,24.531,6.9l-0.722-11.721
		c1.507,0.27,2.839,2.139,3.753,2.737c0.513,10,6.312,21.831,8.376,30.54c11.087-1.741,16.035-7.53,21.636-10.201
		c0.686,1.375,5.121,24.582,7.32,31.605c3.539,11.306,11.899,13.173,25.242,14.266l-0.524,5.59c2.89,1.316,4.781,2.573,8.067,4.202
		l27.362,10.995c2.738,0.748,8.043,1.3,11.123,1.285c4.616-0.022,6.444-1.609,9.317-3.554c4.89-3.31,12.702-3.895,18.618-6.36
		c0.397-4.696,2.022-9.245,1.287-14.141c-0.304-2.029-1.066-4.314-1.586-6.347c-1.311-5.124-0.13-3.347-8.447-2.347l-11.361,0.049
		c-10.678-0.008,2.671-7.424,3.646-7.734c0.378-0.12,17.133-0.565,23.649-1.678c0.722-1.967,2.582-7.783,2.247-9.725
		c-11.31-0.439-21.459-0.668-32.863-0.202c-6.945,0.284-9.32-0.021-15.082,2.252c-3.197,1.262-7.483,4.47-12.626,2.836
		c-1.617-0.513-0.561,0-1.652-0.905c0.93-2.283,0.05-1.359,2.606-2.691c2.59-1.348,7.092-2.969,8.922-4.396
		c2.024-1.577,2.832-2.444,6.016-3.093c8.411-1.716,34.314-1.999,43.343-1.987l-0.112-2.94c-5.449-1.289-8.979-2.045-13.936-4.094
		c-2.804-1.159-10.424-3.866-12.06-6.313c-0.96-1.407-1.01-1.183-1.045-3.287c11.603-10.595,19.527-3.468,28.742-6.986
		c1.83-0.699,6.072-2.422,7.044-3.744c-2.452-8.437-4.016-3.763-5.395-18.56c-0.425-4.56-3.209-17.95-1.406-21.924
		c0.787-1.733,2.09-2.829,3.101-5.273c0.66-1.599,1.209-4.433,1.405-10.337c3.879-0.024,4.901,0.291,8.922-1.073
		c5.4-1.832,12.22-4.458,16.66-7.575c4.769-3.349,12.415-11.273,14.648-17.76c-7.656,0.839-16.174,1.478-23.82,2.545
		c-5.068,0.707-19.457,1.701-24.644,1.234c-3.463-0.356-8.388,0.252-12.125,0.282C646.757,291.055,642.203,290.601,638.546,290.736
		L638.546,290.736z M510.002,353.729c0.83,3.038,2.259,3.254,3.919,5.571c-1.61,1.937,2.44,1.789-2.113,1.591
		c-1.198-1.361-10.827-2.6-13.502-3.25c-3.566-0.867-5.997-2.207-8.753-4.356c-4.063-3.169-11.481-5.558-16.341-13.041
		c-1.558-2.4-1.924-2.645-2.813-5.84c0.747,0.391,1.731-3.958,2.433-3.484c2.394,1.616,5.134,5.073,6.915,6.371
		c-0.122-6.173-1.718-6.456,0.451-11.405c1.85-4.223,3.189-3.019,3.551-7.871c-3.607-2.959-5.296-2.976-9.73-0.444
		c-4.73,2.7-0.275,0.585-6.159,1.684c0.221-1.642,0.628-2.68,1.387-4.162c1.746-3.41,5.787-6.441,9.455-7.662
		c4.487-1.493,6.243-0.017,8.867,2.101l10.797,11.27c1.15,1.641,14.204,12.616,14.817,17.262c-4.996,0.367-7.972-1.527-9.795,9.94
		C505.276,350.527,507.628,352.212,510.002,353.729L510.002,353.729z"/>
	<path style="fill-rule:evenodd;clip-rule:evenodd;fill:#FFFFFF;" d="M692.979,448.488c3.837,0.793,7.794,0.783,11.994,1.739
		c5.968,1.359,10.421,0.005,11.98-0.9c0.099-0.058,0.277-0.169,0.395-0.279c-2.523-1.295-10.959-7.241-8.528-12.98
		c1.418-3.35,6.554-12.818,6.688-15.569c-4.118,0.749-7.874,3.035-12.77,3.541c-1.531-3.041-1.349-5.544-1.677-9.387l-10.556,12.359
		l-0.746,0.569c-0.718,0.606-14.351,18.051-14.599,18.555L692.979,448.488L692.979,448.488z M725.16,643.36l0.707,3.799
		c2.596-0.325,8.421-1.891,10.468-2.804c0.222-5.277-0.503-2.478-1.699-5.761c-1.201-3.295-1.128-16.036-4.862-20.078
		c-2.802-3.032-5.78-5.362-7.897-8.483c-3.461-5.104-1.799-7.16-10.18-6.733c-2.283,3.257-3.943,11.838-9.938,14.592
		c-2.347-1.212,1.041-4.365,2.124-7.438c-4.765,0.333-7.555,1.885-11.111,3.553c0.775,1.697,6.097,5.426,8.093,7.447
		c3.18,3.221,4.463,4.874,8.975,7.356c3.865,2.126,6.951,4.376,9.44,6.976c1.461,1.525,2.015,2.939,3.901,3.999L725.16,643.36
		L725.16,643.36z M551.173,665.014c1.444,6.775,1.917,14.512,4.859,19.945c5.902,0.45,44.329-0.136,48.853-3.276
		c1.763-1.224,7.055-7.69,7.634-9.698c2.086-1.117,6.838-10.054,8.315-12.534c0.093-0.125,0.218-0.482,0.257-0.393l1.362-2.756
		c0.425-1.014,0.882-2.056,1.366-3.135c2.646-5.901,4.554-18.903,3.847-23.434c-6.401-0.66-10.079-1.831-15.904-2.742
		c-16.865-0.346-29.635-1.584-46.067-3.084c-12.803-1.169-26.73-1.54-28.466-0.3c3.41,6.788,6.194,13.739,8.513,20.875
		C547.911,651.159,549.677,657.997,551.173,665.014L551.173,665.014z M677.044,346.171c1.068,0.96,2.318,1.81,4.243,2.404
		c10.804,3.338,25.673,0.158,30.17-10.875c1.201-2.948,2.399-11.163,1.379-14.459c-0.964-3.117-7.704-5.134-10.66-2.275
		c-2.857,2.764,3.208,24.594-16.807,22.353c-3.19-0.357-5.076-1.672-6.649-3.25C673.566,334.894,672.281,341.892,677.044,346.171
		L677.044,346.171z M457.222,565.005c-0.184-1.899-2.655-4.776-3.952-7.653c-0.583-1.295-3.256-8.167-3.579-8.582
		c-1.173,2.064-3.686,8.308-4.25,10.741c-2.361,10.167,11.019,25.407,16.689,28.87l14.264,8.564
		c8.344,4.576,8.906,4.769,19.334,4.198c-1.569-7.491-17.16-14.052-24.432-21.73c-1.502-1.587-3.238-3.374-4.748-4.86
		C463.66,571.714,460.629,567.041,457.222,565.005L457.222,565.005z M692.057,640.218c-2.542-3.301-8.528-4.979-13.935-13.603
		c-1.205-1.922-2.319-4.465-3.692-6.134l-1.911,5.114c-6.728,1.628-18.448,4.481-25.521,2.17
		c-3.086,5.169-1.616,12.762-2.281,18.997c-0.551,5.156-2.893,17.306,5.511,14.119l2.379-0.906
		c-0.672-8.922,1.131-3.016,4.319-2.613c0.413-0.789,0.308-0.246,0.451-1.489c0.07-0.609,0.028-1.225-0.06-1.842
		c8.424-1.332,27.999-5.089,38.559-5.221C695.426,646.234,694.687,642.666,692.057,640.218L692.057,640.218z M708.345,585.768
		c7.553,1.277,11.32,0.42,16.37-3.343c2.008-1.497,2.975-1.556,3.465-3.999c-0.754-0.412-10.488-2.89-13.592-2.494
		c-3.399,0.434-2.822,2.447-5.454,6.096c-0.746,1.034-0.574,0.068-0.905,1.526C707.779,585.542,707.793,583.907,708.345,585.768
		L708.345,585.768z M614.558,342.857c1.118-0.622,2.133-0.895,3.398-1.589c1.347-0.74,1.806-1.297,3.088-2.021l0.927-4.089
		c-0.43-2.686-2.711-6.271-3.928-8.744c-1.638-3.328-3.561-5.048-7.404-6.123c0.06,11.549-0.196,13.679-9.553,17.298
		c-6.366,2.463-18.9,3.065-23.012-5.44c2.892-0.903,6.656-2.197,8.106-5.002c-6.272-1.97-6.09,0.246-10.781,1.034
		c-3.626-8.928-3.423-5.699-1.592-13.333l-10.456,4.894c1.464,9.917,6.189,20.084,15.435,24.55
		C587.537,348.518,605.474,345.334,614.558,342.857L614.558,342.857z M450.13,605.017c-6.622,9.497-9.294,18.593-7.934,31.039
		c0.666,6.101,1.336,13.269,3.424,17.997c5.136,0.472,8.371-2.808,12.104-4.906c7.061-3.965,13.842-8.805,19.741-14.148
		c3.998-3.621,23.565-21.927,24.496-25.415c-1.513-0.345-24.644-1.797-29.462-7.934C464.68,596.577,455.78,596.912,450.13,605.017
		L450.13,605.017z M600.467,601.592c3.289,1.526,22.799-4.475,28.802-4.81c5.983-0.332,8.696-0.517,14.452-2.241
		c7.199-2.157,8.726-0.308,9.679-8.479c-3.615,0.353-4.838,1.208-7.943,1.817c-5.294,1.038-23.097-2.633-24.258-2.163
		c-0.257,0.105-8.622,7.626-9.51,8.465C609.023,596.704,603.966,599.279,600.467,601.592L600.467,601.592z M321.733,245.059
		c12.03,8.286,25.571,16.747,36.174,17.115c16.668,0.578,36.391-4.522,51.871-10.494l-9.853-4.902
		c-7.375-3.489-17.534-7.28-25.754-7.706c-4.708-0.245-10.742,0.8-15.407,1.579c-5.299,0.885-10.6,1.96-15.915,2.716
		C335.292,244.439,328.312,245.121,321.733,245.059L321.733,245.059z M498.349,743.429c13.318-8.023,23.175-2.03,28.494,12.074
		l13.148-14.044c3.597-1.507,15.099-13.1,22.302-16.92c1.164-0.617,4.001,2.036,4.878,1.753c-0.902,1.491-0.219,0.561-1.451,1.66
		l-12.336,9.978c-1.945,1.479-6.058,4.733-6.587,7.031c-0.654,2.838,1.072,9.036,2.219,11.128c4.362-1.513,5.024-5.13,14.076-7.947
		c1.364,1.452,3.353,7.106,4.421,9.187c2.287-1.138,1.87-1.994,4.57-2.967c4.427,2.704,6.649,6.64,10.827,8.751l-1.378-19.36
		c-1.914,1.227-1.18,1.967-3.238,3.343c-1.287-4.232,10.531-20.574,11.469-26.475l0.756-2.783
		c-6.507-0.621-11.038,1.67-18.672,0.801c0.778-4.835,8.015-13.497,10.68-15.689c2.372-1.951,5.597-3.405,7.705-5.275
		c1.767-1.569,3.824-6.094,4.113-9c-12.782-0.052-30.233,2.299-43.274,1.594c-3.776-6.216-4.516-17.027-6.614-25.19
		c-5.145-20.023-6.577-22.508-15.412-39.316c-8.836-0.397-9.273,2.521-17.354-4.112c-1.657-1.359-2.755-3.04-4.506-4.455
		c-5.858,0.846-16.96,15.033-26.877,23.284c-7.262,6.041-10.631,1.164-11.136,21.628l0.714,35.794
		c-1.947-3.488-1.114-9.662-4.965-15.157c-1.231-1.756-0.854-2.814-1.819-4.804c-3.466,4.861-12.204,31.871-13.692,38.295
		c3.883-2.219,7.266-10.05,9.596-11.161c-0.942,2.89-2.551,7.432-3.952,10.534c-3.219,7.131-7.977,11.094-14.306,14.919
		c-1.899,1.148-8.121,3.919-9.265,6.031c2.936,1.6,9.887,1.288,13.028,0.967c5.711-0.584,17.877-7.848,24.319-10.629l0.756,0.855
		l-4.081,6.076c-0.425,1.388-0.775,2.827-1.01,4.221c2.082-0.363,5.058-2.044,7.826-2.82c1.944-0.546,3.748-0.989,5.481-1.392
		c3.722-3.404,7.545-5.91,10.744-6.472l6.628-1.165C496.153,730.5,496.949,729.599,498.349,743.429L498.349,743.429z
		 M435.429,753.867c16.355,0.336,6.164,3.914,13.039,8.062c2.993,1.806,1.437,1.414,2.972,4.234l9.085-1.729
		c0.315-3.417,0.836-6.913,2.488-9.88c1.516-4.559,4.747-8.97,9.572-14.381c-9.959,2.346-10.989,9.531-15.31,10.141
		c-0.451-6.699,2.751-8.784,3.109-13.993C454.734,738.186,438.546,748.703,435.429,753.867L435.429,753.867z M734.342,706.231
		l-0.009-0.119l-0.233,0.008L734.342,706.231L734.342,706.231z M673.159,661.154c-9.481-0.505-11.714,4.985-20.162,6.607
		c-3.757,0.719-7.105,1.791-10.595,3.176c-4.408,1.751-4.806,3.559-4.462,9.21c-2.062,0.724-3.564,2.318-4.726,6.512l-7.344,13.754
		l-4.67,4.522c0.659,3.438,1.531,5.521,1.843,9.218c0.577,6.842,0.378,13.283,3.181,19.746c1.141,2.629,3.039,5.619,3.653,8.31
		c-5.382,2.982-5.732,3.784-8.844,8.32c19.021,4.618,5.894-11.48,24.973-3.093c0.769,0.336,1.408,0.721,2.018,1.121
		c0.854-1.463,2.037-2.791,3.919-4.088c11.149-7.691,23.113-7.668,35.909-5.473c4.455,0.764,14.617,3.32,20.048,2.414l-0.265-3.773
		l0.01-0.22c-2.128-3.544-3.74-8.44-4.501-11.7l-1.933-8.288l2.306-0.105l-0.149-0.413l0.684,0.389l5.661-0.26
		c5.761-0.263,11.36,0.008,17.061,0.859c1.946,0.29,3.878,0.655,5.808,1.02c-0.112-0.422-0.215-0.864-0.307-1.331l-2.226-11.353
		c-1.291-0.044-2.496-0.228-3.308-0.735c0.921-0.502,1.902-0.912,2.918-1.258l-0.03-0.154l0.208,0.095
		c4.873-1.621,10.527-1.842,14.44-3.835l0.478-9.537c-6.1-6.32-6.373,1.472-0.711-13.96c1.164-3.175,3.403-7.294,4.026-9.977
		l-9.726,0.533c-0.328,2.949-1.017,5.184-1.791,8.04c-1.042,3.841-0.768,5.646-2.459,7.028c-3.286-1.09-0.709-2.555-0.398-6.337
		c0.219-2.652,0.406-7.099,0.298-9.811c-0.156-3.948-2.078-14.784-6.606-15.884c-0.425,6.727,1.563,12.984,0.295,28.839
		c-0.232,2.907-2.053,4.575-4.115,5.928c-4.626,3.033-11.727-1.74-15.255-3.379c-7.777-3.609-10.563-1.126-18.137-0.915
		c0.951-6.743,9.359-17.007,6.321-26.145c-1.863-2.422-14.618,1.457-18.885,3.675C675.811,659.382,674.378,660.271,673.159,661.154
		L673.159,661.154z M550.73,413.886l-2.737-17.78c-2.453,1.316-3.525,2.754-6.173,3.971c-5.983,2.75-19.498,6.002-25.694,4.647
		c-15.206-3.326-16.654-16.922-22.956-18.666c-1.727,2.859-2.023,4.689-4.179,6.892c-1.873,1.915-4.51,3.901-5.75,6.051
		c-10.565,0.903-16.778-4.011-25.195-5.749l1.633,9.115c-16.01-1.436-14.536-0.757-27.498-5.762l2.498,21.15
		c0.543,2.596,1.37,4.041,1.691,6.742c-6.322,2.367-4.215,2.822-14.108,4.606c1.266,2.5,2.061,2.327,3.467,4.742
		c-1.917,6.713-6.183,13.178-9.326,18.659c-6.327,11.033-4.728,7.341-13.89,14.261c3.304,4.346,11.308,8.644,13.181,10.115
		c3.22,2.528,2.949,12.666,6.172,17.778c-0.032-4.187-0.769-7.387-0.825-11.678c-0.136-10.316-0.352-27.831,3.043-36.355
		c2.768-6.949,6.348-10.079,10.916-14.489c14.782-14.274,18.083-11.951,33.186-18.234c8.676-3.61,7.017-4.391,19.239-6.83
		c9.595-1.915,13.176-1.886,23.488-0.421c25.188,3.579,46.065,22.548,52.536,47.32c0.964,3.691,1.621,6.498,1.889,10.362
		c0.38,5.472,1.23,6.54,2.093,10.741c-2.092,1.932-5.879,4.262-3.912,8.192c0.282,0.563,0.942,4.263,2.987,3.754l2.016-0.502
		l4.975-3.916c3.139-2.895,0.309-2.768,4.88-4.382c1.576-0.557,1.899-4.094,2.517-5.565c0.612,1.336,1.442,2.53,3.038,3.19
		c4.039,1.667,9.208,0.086,12.205-2.078l2.885-1.179c2.561-0.155,3.597-0.308,5.868-1.917c-1.367-2.235-3.218-3.975-5.061-6.058
		c-1.737-1.963-3.662-4.834-5.182-6.28c-2.218-2.108-3.313,0.471-5.717-2.436c-2.623-3.17-1.531-1.682-7.101-2.503
		c-0.034,2.194,0.586,1.194,0.738,4.086c-3.027-0.234-3.815-0.746-4.633-1.285c0.214-0.681,0.416-1.343,0.579-1.974
		c1.376-5.34-0.054-10.98-0.514-16.502c-14.447-3.346-15.696-0.246-24.178-13.722C551.746,420.699,552.317,416.6,550.73,413.886
		L550.73,413.886z"/>
	<path style="fill-rule:evenodd;clip-rule:evenodd;fill:#ED1C24;" d="M673.92,516.859c0.004,2.053,0.406,5.482,0.639,7.942
		c0.104,1.099,0.254,2.211,0.334,3.258c0.114,1.477,0.31,2.853,1.23,4.029c5.723-0.131,9.822-5.51,12.809-8.095
		c0.09-0.077,0.215-0.187,0.304-0.263l2.411-2.045c4.74-4.852,2.517-1.295,5.702-7.362c0.979-1.865,6.981-8.923,2.649-13.452
		c-3.354-3.506-5.616,0.892-11.619,4.536c-3.111,1.889-2.971,1.175-5.703,3.918L673.92,516.859L673.92,516.859z"/>
</g>
</svg>
